<svg xmlns="http://www.w3.org/2000/svg" viewBox="0 0 434 238.71"><defs><style>.cls-1{fill:#d7f1ff;opacity:0.5;}.cls-2{fill:#518191;}.cls-3{fill:#bee9fc;}.cls-4{fill:#fff;}.cls-5{fill:#ed7445;}.cls-6{fill:#b0d8ff;}.cls-7{fill:#e6f7ff;}.cls-8{fill:#eceff1;}</style></defs><title>en-construccion-2</title><g id="Capa_2" data-name="Capa 2"><g id="OBJECTS"><polygon class="cls-1" points="125.5 129.93 70.91 129.93 70.91 224.66 125.5 224.66 140.43 224.66 204.62 224.66 204.62 59.47 125.5 59.47 125.5 129.93"/><polygon class="cls-1" points="294.62 135.67 294.62 0 215.5 0 215.5 224.66 291.5 224.66 294.62 224.66 352.7 224.66 352.7 135.67 294.62 135.67"/><rect class="cls-2" y="221.66" width="434" height="2"/><rect class="cls-3" x="95.09" y="82.66" width="190.72" height="149.89"/><rect class="cls-4" x="95.09" y="99.64" width="190.72" height="132.91"/><circle class="cls-4" cx="101.92" cy="90.83" r="2.78"/><circle class="cls-4" cx="113.76" cy="90.83" r="2.78"/><circle class="cls-4" cx="125.59" cy="90.83" r="2.78"/><path class="cls-4" d="M220.2,95.83H141.7a4.75,4.75,0,0,1-4.75-4.75h0a4.75,4.75,0,0,1,4.75-4.75h78.5a4.75,4.75,0,0,1,4.75,4.75h0A4.75,4.75,0,0,1,220.2,95.83Z"/><path class="cls-4" d="M274.19,95.83H237a4.75,4.75,0,0,1-4.75-4.75h0A4.75,4.75,0,0,1,237,86.33h37.16a4.75,4.75,0,0,1,4.75,4.75h0A4.75,4.75,0,0,1,274.19,95.83Z"/><rect class="cls-3" x="110.31" y="158.86" width="67.85" height="38.29"/><rect class="cls-3" x="110.31" y="111.86" width="67.85" height="38.29"/><rect class="cls-3" x="110.9" y="206.83" width="66.67" height="3"/><rect class="cls-3" x="110.9" y="216.83" width="66.67" height="3"/><rect class="cls-3" x="201.62" y="206.83" width="66.67" height="3"/><rect class="cls-3" x="201.62" y="216.83" width="66.67" height="3"/><path class="cls-2" d="M286.81,233.56H94.09V81.66H286.81Zm-190.72-2H284.81V83.66H96.09Z"/><path class="cls-2" d="M332.51,211H312.94V46.33h19.57Zm-17.57-2h15.57V48.33H314.94Z"/><rect class="cls-3" x="310.26" y="201.47" width="24.92" height="17.86"/><path class="cls-2" d="M331.61,192H314.28a1,1,0,0,1-.73-1.68l16.67-18,1.47,1.36L316.57,190h15Z"/><path class="cls-2" d="M331.61,174H314.28a1,1,0,0,1-.73-1.68l16.67-18,1.47,1.36L316.57,172h15Z"/><path class="cls-2" d="M331.61,155.93H314.28a1,1,0,0,1-.73-1.68l16.67-18,1.47,1.36-15.11,16.32h15Z"/><path class="cls-2" d="M331.61,137.9H314.28a1,1,0,0,1-.73-1.68l16.67-18,1.47,1.36L316.57,135.9h15Z"/><path class="cls-2" d="M331.61,119.86H314.28a1,1,0,0,1-.73-1.68l16.67-18,1.47,1.36-15.11,16.32h15Z"/><path class="cls-2" d="M331.61,101.83H314.28a1,1,0,0,1-.73-1.68l16.67-18,1.47,1.36L316.57,99.83h15Z"/><path class="cls-2" d="M331.61,83.79H314.28a1,1,0,0,1-.73-1.68l16.67-18,1.47,1.36L316.57,81.79h15Z"/><path class="cls-2" d="M331.61,65.76H314.28a1,1,0,0,1-.73-1.68l16.67-18,1.47,1.36L316.57,63.76h15Z"/><rect class="cls-5" x="300.76" y="39.38" width="31.72" height="26.74"/><rect class="cls-5" x="348.42" y="39.38" width="31.72" height="15.36"/><path class="cls-2" d="M379.61,41.33H222.95a1,1,0,1,1,0-2H379.61a1,1,0,1,1,0,2Z"/><rect class="cls-2" x="230.23" y="45" width="1" height="65"/><path class="cls-6" d="M323.61,39.66"/><rect class="cls-2" x="301.76" y="216.14" width="41.92" height="7.86"/><path class="cls-2" d="M316.73,41.07a.5.5,0,0,1-.35-.15L308,32.57H231.44l-7.85,7.85a.5.5,0,1,1-.71-.71L231,31.57h77.41l8.65,8.65a.5.5,0,0,1-.35.85Z"/><path class="cls-2" d="M380.28,41.07a.5.5,0,0,1-.44-.27l-8.36-16H351.2L343.34,40.3a.5.5,0,1,1-.89-.45l8.14-16h21.49l8.64,16.51a.5.5,0,0,1-.44.73Z"/><circle class="cls-3" cx="230.73" cy="45" r="3.67"/><rect class="cls-3" x="187.93" y="112.46" width="84.09" height="43.33" transform="translate(-11.37 21.73) rotate(-5.28)"/><path class="cls-2" d="M252.4,32.56a.5.5,0,0,1-.15-1L326.29,9a.5.5,0,0,1,.34,0l35.09,14.81a.5.5,0,0,1-.39.92L326.41,10,252.55,32.54Z"/><path class="cls-2" d="M314.79,41.14a1,1,0,0,1-.93-1.36L325.51,9.11a1,1,0,0,1,1.91.16l6,29.92a1,1,0,0,1-2,.39l-5.34-26.52L315.73,40.49A1,1,0,0,1,314.79,41.14Z"/><circle class="cls-3" cx="326.45" cy="9.46" r="2.02"/><path class="cls-2" d="M241.86,41.16a.5.5,0,0,1-.31-.11l-9.82-7.94v7.42a.5.5,0,0,1-1,0V32.07a.5.5,0,0,1,.81-.39l10.63,8.6a.5.5,0,0,1-.31.89Z"/><path class="cls-2" d="M251.36,41.16a.5.5,0,0,1-.31-.11l-9.82-7.94v7.42a.5.5,0,1,1-1,0V32.07a.5.5,0,0,1,.81-.39l10.63,8.6a.5.5,0,0,1-.31.89Z"/><path class="cls-2" d="M260.86,41.16a.5.5,0,0,1-.31-.11l-9.82-7.94v7.42a.5.5,0,1,1-1,0V32.07a.5.5,0,0,1,.81-.39l10.63,8.6a.5.5,0,0,1-.31.89Z"/><path class="cls-2" d="M270.35,41.16a.5.5,0,0,1-.31-.11l-9.82-7.94v7.42a.5.5,0,0,1-1,0V32.07a.5.5,0,0,1,.81-.39l10.63,8.6a.5.5,0,0,1-.31.89Z"/><path class="cls-2" d="M279.85,41.16a.5.5,0,0,1-.31-.11l-9.82-7.94v7.42a.5.5,0,0,1-1,0V32.07a.5.5,0,0,1,.81-.39l10.63,8.6a.5.5,0,0,1-.31.89Z"/><path class="cls-2" d="M289.34,41.16a.5.5,0,0,1-.31-.11l-9.82-7.94v7.42a.5.5,0,0,1-1,0V32.07a.5.5,0,0,1,.81-.39l10.63,8.6a.5.5,0,0,1-.31.89Z"/><path class="cls-2" d="M298.84,41.16a.5.5,0,0,1-.31-.11l-9.82-7.94v7.42a.5.5,0,0,1-1,0V32.07a.5.5,0,0,1,.81-.39l10.63,8.6a.5.5,0,0,1-.31.89Z"/><path class="cls-2" d="M308.33,41.16a.5.5,0,0,1-.31-.11l-9.82-7.94v7.42a.5.5,0,0,1-1,0V32.07a.5.5,0,0,1,.81-.39l10.63,8.6a.5.5,0,0,1-.31.89Z"/><path class="cls-2" d="M364.47,41.16a.5.5,0,0,1-.38-.18L351.33,25.94v14.6a.5.5,0,0,1-1,0v-16a.5.5,0,0,1,.88-.32l13.63,16.09a.5.5,0,0,1-.38.82Z"/><path class="cls-2" d="M374.28,41.16a.5.5,0,0,1-.42-.22l-9.72-14.7v14.3a.5.5,0,0,1-1,0v-16a.5.5,0,0,1,.92-.28l10.63,16.09a.5.5,0,0,1-.42.78Z"/><circle class="cls-5" cx="230.73" cy="111.33" r="3.15"/><rect class="cls-2" x="60.12" y="174.16" width="2" height="48"/><rect class="cls-2" x="22.12" y="174.16" width="2" height="48"/><rect class="cls-7" x="17.12" y="178.66" width="50.22" height="18.5"/><polygon class="cls-5" points="67.33 197.16 67.33 179.66 58.1 197.16 67.33 197.16"/><polygon class="cls-5" points="35.6 197.16 46.34 197.16 56.1 178.66 45.36 178.66 35.6 197.16"/><polygon class="cls-5" points="22.86 178.66 17.12 189.55 17.12 197.16 23.84 197.16 33.6 178.66 22.86 178.66"/><rect class="cls-2" x="14.62" y="208.17" width="55" height="2"/><rect class="cls-2" x="408.11" y="174.16" width="2" height="48"/><rect class="cls-2" x="370.11" y="174.16" width="2" height="48"/><rect class="cls-7" x="365.11" y="178.66" width="50.22" height="18.5"/><polygon class="cls-5" points="415.33 197.16 415.33 179.66 406.1 197.16 415.33 197.16"/><polygon class="cls-5" points="383.6 197.16 394.34 197.16 404.1 178.66 393.36 178.66 383.6 197.16"/><polygon class="cls-5" points="370.86 178.66 365.11 189.55 365.11 197.16 371.84 197.16 381.6 178.66 370.86 178.66"/><rect class="cls-2" x="362.61" y="208.17" width="55" height="2"/><path class="cls-5" d="M91.5,236H68.72a1.36,1.36,0,0,0,0,2.72H91.5a1.36,1.36,0,0,0,0-2.72Z"/><path class="cls-5" d="M82,216.63a.74.74,0,0,0-.7-.49H78.65a.74.74,0,0,0-.7.5l-7.35,21h19Z"/><polygon class="cls-8" points="76.59 220.53 75.43 223.85 84.58 223.85 83.38 220.53 76.59 220.53"/><polygon class="cls-8" points="73.63 228.99 72.47 232.31 87.67 232.31 86.46 228.99 73.63 228.99"/><path class="cls-1" d="M88.09,58.94a7.73,7.73,0,0,0-4.48,1.42v-2.2a11.5,11.5,0,0,0-23,0v4.35a5.8,5.8,0,0,0-9.8,4.21H95.87A7.78,7.78,0,0,0,88.09,58.94Z"/><path class="cls-1" d="M181,27.6a5.63,5.63,0,0,0-3.26,1V27a8.37,8.37,0,1,0-16.74,0V30.2a4.23,4.23,0,0,0-7.14,3.07h32.8A5.66,5.66,0,0,0,181,27.6Z"/></g></g></svg>