<svg xmlns="http://www.w3.org/2000/svg" viewBox="0 0 697.21 167.07"><defs><style>.cls-1{fill:#1a1a19;}.cls-2{fill:#49a5e4;}</style></defs><title>locallity-logo-full</title><g id="Capa_2" data-name="Capa 2"><g id="Capa_1-2" data-name="Capa 1"><path class="cls-1" d="M34.11,86.66v47.12H53.66V86.66a43.74,43.74,0,0,1-19.56,0"/><path class="cls-2" d="M43.71,0A43.88,43.88,0,1,0,87.77,43.71,43.88,43.88,0,0,0,43.71,0M30.07,58a7.56,7.56,0,0,1-5,1.85c-3.81,0-6.92-2.56-6.93-5.74a5.13,5.13,0,0,1,1.33-3.41l11.87,0Zm-9.51-9.2L27.7,34.67A1.42,1.42,0,0,1,29,33.89l5.24,0L31.65,48.8Zm15.57-15,7.12,0,.25,14.92-9.93,0Zm1.65,26a7.35,7.35,0,0,1-5.67-2.47l1.14-6.69,10.29,0,.11,6.42a7.28,7.28,0,0,1-5.87,2.77M29.23,30.65a.95.95,0,0,1,0-1.89l30.63-.12a.95.95,0,0,1,0,1.89Zm15.91,3.17,7.18,0L55,48.7l-9.6,0Zm6.11,26a7.33,7.33,0,0,1-5.71-2.52l-.11-6.63,9.9,0,1.26,7a7.48,7.48,0,0,1-5.34,2.15m3-26,5.87,0a1.42,1.42,0,0,1,1.28.79l6.93,14.09-11.41,0Zm9.62,25.77a7.44,7.44,0,0,1-5.38-2.15l-1.22-6.82,12.28,0a5.09,5.09,0,0,1,1.21,3.22c0,3.18-3.08,5.78-6.89,5.8"/><rect class="cls-1" x="134.01" y="20.81" width="19.56" height="112.97"/><path class="cls-1" d="M250,94c0,22.95-15.68,41.54-41.54,41.54S167.14,117,167.14,94c0-22.79,15.84-41.53,41.21-41.53S250,71.23,250,94m-63.19,0c0,12.12,7.27,23.43,21.66,23.43S230.17,106.14,230.17,94c0-12-8.4-23.6-21.66-23.6-14.22,0-21.66,11.64-21.66,23.6"/><path class="cls-1" d="M332,123.6c-9.21,9.05-18.91,12.61-30.71,12.61-23.11,0-42.34-13.9-42.34-42.18s19.23-42.18,42.34-42.18c11.31,0,20,3.23,28.77,11.8L317.6,76.73a24.2,24.2,0,0,0-16-6.3c-13.25,0-22.95,9.7-22.95,23.6,0,15.19,10.34,23.27,22.63,23.27,6.3,0,12.6-1.78,17.45-6.63Z"/><path class="cls-1" d="M403.89,54.1H422.8v79.68H404.22l-1-11.64c-4.52,9.37-17,13.9-25.86,14.06-23.6.16-41-14.38-41-42.34,0-27.47,18.26-41.86,41.53-41.7,10.67,0,20.85,5,25.37,12.93ZM356.06,93.86c0,15.19,10.5,24.24,23.6,24.24,31,0,31-48.32,0-48.32-13.09,0-23.6,8.89-23.6,24.08"/><rect class="cls-1" x="439.45" y="20.81" width="19.55" height="112.97"/><rect class="cls-2" x="476.29" y="20.81" width="19.56" height="112.97"/><path class="cls-2" d="M534.63,31.64c0,15.35-23.27,15.35-23.27,0s23.27-15.35,23.27,0M513.14,133.78h19.72v-80H513.14Z"/><path class="cls-2" d="M578.43,31.64V54.26h22v17H578.27v34.42c0,7.6,4.2,11.31,10.34,11.31a22.51,22.51,0,0,0,9.54-2.43l5.5,16.81a44,44,0,0,1-16.32,3.39c-17.29.65-28.61-9.21-28.61-29.09V71.23H543.84v-17h14.87V33.74Z"/><polygon class="cls-2" points="697.21 54.1 648.56 167.07 626.91 167.07 641.77 132.49 609.94 54.1 632.88 54.1 645.01 88.53 652.6 110.99 660.85 89.01 675.39 54.1 697.21 54.1"/></g></g></svg>