<svg xmlns="http://www.w3.org/2000/svg" viewBox="0 0 117.22 117.22"><defs><style>.cls-1{fill:#fff;}.cls-2{fill:#fefefe;}.cls-3{fill:#777;}.cls-4{fill:#767676;}.cls-5{fill:#a1a1a1;}.cls-6{fill:#cbcbcb;}.cls-7{fill:#888;}.cls-8{fill:#b9b9b9;}.cls-9{fill:#bababa;}.cls-10{fill:#020202;}.cls-11{fill:#030303;}.cls-12{fill:#010101;}.cls-13{fill:#fdfdfd;}</style></defs><title>--hogar</title><g id="Capa_2" data-name="Capa 2"><g id="Capa_1-2" data-name="Capa 1"><rect class="cls-1" width="117.22" height="117.22"/><path class="cls-2" d="M65.1,6.42q22.43,0,44.86,0c.7,0,.84.14.84.84q0,51.59,0,103.18c0,.7-.14.84-.83.84q-51.49,0-103,0c-.7,0-.84-.14-.84-.83q0-38.13,0-76.27A1.65,1.65,0,0,1,6.46,34a2.3,2.3,0,0,1,.8-.11c2,0,2.36,0,2.26,2.06,0,.95.54,1,1.25,1s1.29-.12,1.21-1a5.58,5.58,0,0,1,0-.81,1.12,1.12,0,0,1,1.13-1.18c.24,0,.48,0,.71,0,.39,0,.9.12,1.08-.36a2.71,2.71,0,0,0,0-1.79c-.07-.22-.31-.24-.51-.27a8.61,8.61,0,0,0-.91,0c-1.3,0-1.47-.2-1.51-1.47,0-.14,0-.27,0-.41,0-1.07-.14-1.18-1.17-1.18s-1.23.14-1.28,1.2c0,.56.12,1.16-.32,1.65a4.41,4.41,0,0,1-3-.1c0-8,0-15.94,0-23.91,0-.63.13-.79.78-.78,6.88,0,13.77,0,20.65,0,.27.39,0,.72-.13,1-1.22,2.2-2.42,4.41-3.62,6.62a4.93,4.93,0,0,1-2.18,2.05c-2.23,1.15-4.42,2.38-6.71,3.68,1.63,1,3.23,1.88,4.82,2.78.95.53,1.89,1.07,2.83,1.62a1.11,1.11,0,0,1,.48,1.64,32.83,32.83,0,0,0-2.73,13.79c-.08,6.49-.06,13,0,19.47a13.22,13.22,0,0,0,5.3,10.76,4,4,0,0,1,1.6,2.78,42.54,42.54,0,0,0,9.91,21.57,39.37,39.37,0,0,0,5.16,5.05,2.19,2.19,0,0,1,.86,1.85q0,4.08,0,8.16a1.4,1.4,0,0,0,2.17,1.19c.37-.21.32-.57.33-.9,0-1.67,0-3.33,0-5,0-.34,0-.68,0-1,0-1.27.4-1.5,1.48-.85a39.83,39.83,0,0,0,7.46,3.51c1,.35,2,.6,3,.91a3.24,3.24,0,0,0,1.9-.14,39,39,0,0,0,9.71-4.18c.42-.25.87-.76,1.36-.47s.29.93.29,1.43c0,1.9,0,3.81,0,5.71,0,1,.09,1.08,1.23,1.08s1.26-.05,1.26-1.05c0-2.75,0-5.51,0-8.26a2.33,2.33,0,0,1,.93-2A43.87,43.87,0,0,0,78,95.84c.8-.8,1.12-.73,1.68.28.88,1.57,1.74,3.15,2.59,4.74.44.83.56.84,1,0,1.2-2.09,2.32-4.23,3.48-6.34a4,4,0,0,1,1.64-1.61c2.08-1.14,4.18-2.27,6.26-3.42.25-.14.59-.19.7-.6-1.28-.87-2.7-1.52-4.05-2.28-1-.56-2-1.13-3-1.66A2.33,2.33,0,0,1,87,81.69a45.7,45.7,0,0,0,2.45-9.56,2.68,2.68,0,0,1,1.14-1.93,13.81,13.81,0,0,0,5.53-9.08,10,10,0,0,0,.12-1.62q0-11,0-22c0-.82-.17-1.62-.23-2.43,0-.6-.38-.79-1-.75-1.5.13-1.69.32-1.44,1.84a16.28,16.28,0,0,1,.13,2.64q0,6.12,0,12.23c0,1.64-.12,1.75-1.72,1.76-1.82,0-2-.17-2.08-2.27a36.05,36.05,0,0,0-1.64-9.92c-2.46-7.95-7.14-14.14-14.6-18a30.81,30.81,0,0,0-11.61-3.24,29.64,29.64,0,0,0-6.4,0A1.81,1.81,0,0,1,54.52,19a5.65,5.65,0,0,1-.46-9,2.56,2.56,0,0,1,1.6-.57c3.43,0,6.88-.18,10.29,0a29.09,29.09,0,0,1,17,6.74,30.07,30.07,0,0,1,6.92,8.22c.68,1.17,1.38,1.24,2.41.33.43-.38.22-.73,0-1.09A26.12,26.12,0,0,0,89.15,19,32.57,32.57,0,0,0,68.69,7.21c-.9-.15-1.81-.26-2.73-.33C65.63,6.86,65.17,7,65.1,6.42Z"/><path d="M65.1,6.42a7.45,7.45,0,0,0,2.63.37q16.75,2.43,25,17.16c.27.47.25.72-.28,1-2,1-2,1-3.19-.88-5.79-9.18-14.11-14-25-14.38-2.89-.09-5.78,0-8.66,0a2.08,2.08,0,0,0-1.39.48,5.37,5.37,0,0,0-.68,7.71A3,3,0,0,0,56.31,19c16.56-1,29.5,8.2,33.07,24.71a41.13,41.13,0,0,1,.9,8c0,.67.16.93.9.92,2.3,0,2.32,0,2.3-2.32,0-5.13.21-10.26-.27-15.38,0-.1-.09-.26,0-.29.74-.65,1.7-.44,2.56-.64.61-.14.5.45.54.75a39.09,39.09,0,0,1,.29,5.08q0,9.43,0,18.86a14.06,14.06,0,0,1-6.18,12.07,1.3,1.3,0,0,0-.6,1A44.43,44.43,0,0,1,87.13,82,1.83,1.83,0,0,0,88,84.53c2.64,1.46,5.29,2.9,7.93,4.35,0,.38-.34.4-.55.52-2.25,1.24-4.51,2.5-6.78,3.7a3.93,3.93,0,0,0-1.75,1.74c-1.3,2.49-2.68,4.94-4.11,7.54l-3.9-7.1a44.39,44.39,0,0,1-5,4.63c-.34.26-.23.61-.23.93,0,3.06,0,6.12,0,9.17,0,.69-.2.83-.85.83-2.23,0-2.23,0-2.23-2.18v-6.33c-.92.53-1.73,1-2.55,1.46a39.37,39.37,0,0,1-9.13,3.64,2.26,2.26,0,0,1-1.19,0,39.42,39.42,0,0,1-10.82-4.56c-.25-.15-.46-.4-.89-.35,0,2.47,0,4.94,0,7.41,0,.68-.12.92-.87.91-2.21,0-2.21,0-2.21-2.22,0-2.58,0-5.17,0-7.75a1.38,1.38,0,0,0-.57-1.2A42.79,42.79,0,0,1,26.81,71.77a1.51,1.51,0,0,0-.68-1.13A14,14,0,0,1,20,58.82c0-6.49-.1-13,0-19.47.09-4.8.69-9.55,2.92-13.92.28-.55,0-.68-.36-.9-2.48-1.4-5-2.81-7.43-4.22l-.86-.5c2.69-1.47,5.28-2.91,7.9-4.32a2.58,2.58,0,0,0,1.12-1.11c1.31-2.45,2.67-4.88,4-7.32.1-.19.34-.36.24-.63h.2c1.09,1.16,1.59,2.68,2.39,4,.47.78.93,1.58,1.33,2.41.28.59.61.72,1.18.27A30.9,30.9,0,0,1,48.73,6.68c1.37-.16,2.76-.06,4.14-.27h.61a.47.47,0,0,0,.61,0h1.43a3.49,3.49,0,0,0,1.84,0h.2a8.1,8.1,0,0,0,2,.11H63.2c.43-.05.87.12,1.29-.11Z"/><path class="cls-2" d="M52.86,6.42a5.72,5.72,0,0,1-2.52.35c-6.67.56-12.76,2.59-18,6.92-.29.25-.49.43-.75-.07-1.25-2.42-2.69-4.74-3.84-7.21Z"/><path class="cls-3" d="M6.17,31.09H9.23c-.13.55-.6.45-1,.48-1.48.12-1.48.11-1.6,1.65a1.37,1.37,0,0,1-.31.93H6.17Z"/><path class="cls-3" d="M59.6,6.59c-.68,0-1.39.25-2-.17h2q.1.05.07.11S59.62,6.59,59.6,6.59Z"/><path class="cls-4" d="M57.35,6.42a1.81,1.81,0,0,1-1.84,0Z"/><path class="cls-5" d="M62.25,6.59H60.62q-.11-.05-.07-.11s0-.06.07-.06h1.63q.1.05.07.11S62.27,6.59,62.25,6.59Z"/><path class="cls-6" d="M64.49,6.42c-.35.43-.81.13-1.22.17q-.1-.06-.07-.11s0-.06.07-.06Z"/><path class="cls-7" d="M60.61,6.42q0,.09,0,.17h-1c0-.06,0-.11,0-.17Z"/><path class="cls-8" d="M63.26,6.42q0,.09,0,.17h-1q0-.09,0-.17Z"/><path class="cls-9" d="M54.09,6.42c-.2.31-.41.35-.61,0Z"/><path d="M95,78.41C95,77,95,77,96.45,77c1.65,0,1.65,0,1.65-1.63,0-.31,0-.61,0-.91s.11-.57.51-.52h.2c2.31-.06,2.34-.06,2.33,2.25,0,.68.2.83.85.83,2.32,0,2.3,0,2.24,2.35,0,.51-.11.73-.67.71-.77,0-1.78-.25-2.25.14s-.15,1.46-.14,2.23c0,.53-.15.68-.69.69-2.37.07-2.4.09-2.37-2.22,0-.74-.23-1-.91-.86a3.35,3.35,0,0,1-.51,0C95,80,95,80,95,78.41Z"/><path d="M6.36,34.16c0-.91-.27-2,.16-2.66s1.63-.11,2.49-.24c.08,0,.15-.11.23-.16A7.74,7.74,0,0,0,9.3,29c0-.63.11-.89.83-.89,2.22,0,2.25,0,2.23,2.2,0,.72.22.91.92.9,2.22,0,2.2,0,2.18,2.25,0,.61-.14.83-.79.82s-1.68-.34-2.14.16-.15,1.43-.13,2.16-.2.73-.76.74c-2.28,0-2.3.06-2.31-2.22,0-.65-.15-.92-.85-.87A21.09,21.09,0,0,1,6.36,34.16Z"/><path class="cls-10" d="M59.58,14.36c0,1.47,0,1.47-1.89,1.47-1.17,0-1.17,0-1.17-1.88,0-1.18,0-1.18,1.88-1.18C59.58,12.77,59.58,12.77,59.58,14.36Z"/><path class="cls-11" d="M109,70.84c-1.53,0-1.53,0-1.53-1.84,0-1.23,0-1.23,1.93-1.23,1.14,0,1.14,0,1.14,1.83C110.49,70.84,110.49,70.84,109,70.84Z"/><path class="cls-11" d="M110.49,87.67c0,1.53,0,1.53-1.85,1.53-1.22,0-1.22,0-1.21-1.85,0-1.21,0-1.09,1.94-1.25C110.88,86,110.44,86.92,110.49,87.67Z"/><path class="cls-12" d="M95.35,30.52c-.59.5-1.45.47-2.19.73-.24.08-.64.38-.81-.18s-.43-1.35-.68-2c-.15-.39.11-.48.35-.57.78-.28,1.79-1,2.3-.71s.66,1.53.94,2.36C95.29,30.19,95.3,30.26,95.35,30.52Z"/><path class="cls-2" d="M29.46,48.31a36.34,36.34,0,0,1,4.21-13.4A23.42,23.42,0,0,1,47.92,23.53a34.79,34.79,0,0,1,21.43.28c8.21,2.69,13.3,8.45,15.93,16.54.23.71.42,1.43.62,2.15a1.13,1.13,0,0,1,0,.3c-.25.08-.29-.13-.38-.24A37.15,37.15,0,0,0,60.49,28c-.59-.08-.69-.31-.7-.84,0-2.32,0-2.29-2.32-2.29-.7,0-.75.28-.73.84a21,21,0,0,1-.49,6,11.37,11.37,0,0,1-1.92,4.12c-.33.43-.2.62.17.87A14.49,14.49,0,0,1,56,37.82c.4.36.59.21.85-.17A14.68,14.68,0,0,0,59.31,32c.19-1,.66-1,1.44-.91A34.48,34.48,0,0,1,84.06,45.74l.28.42a14.32,14.32,0,0,1,2.91,9.15c-.24,5.29.08,10.6-.54,15.88a32.34,32.34,0,0,1-1.88,8.12l-2.06-3.7c-1.47,2.69-2.9,5.27-4.29,7.87a2.77,2.77,0,0,1-1.18,1.19c-2.59,1.39-5.16,2.81-7.89,4.3l5.52,3c1.9,1,1.91,1,.33,2.6a38.61,38.61,0,0,1-15.61,9.44,4.09,4.09,0,0,1-2.56,0,38.34,38.34,0,0,1-16-9.13,38.13,38.13,0,0,1-10-17.89,73,73,0,0,1-1.91-23.35,1.24,1.24,0,0,1,.32-.92c1.61-1.56,3.17-3.18,4.81-4.71,2.6-2.44,5.87-3.12,9.28-3.34a16.59,16.59,0,0,0,9.89-3.51c.56-.46.62-.75.08-1.23s-.91-1.33-1.47-1.45-1.09.66-1.65,1a14.7,14.7,0,0,1-8,2.22c-4.93.16-8.83,2.34-12.13,5.84C30,47.91,29.85,48.23,29.46,48.31Z"/><path class="cls-2" d="M25.11,28.51l2.58,4.68c1.42-2.59,2.81-5.09,4.16-7.62A3.66,3.66,0,0,1,33.45,24c2.51-1.33,5-2.71,7.62-4.15l-6.79-3.73A29.72,29.72,0,0,1,50.47,9.73,8.5,8.5,0,0,0,51,19.51c-1,.24-2,.44-3,.71-9.7,2.74-15.9,9.2-19.43,18.43a37.76,37.76,0,0,0-2.43,13c0,.73-.23.89-.92.88-2.16,0-2.16,0-2.16-2.15,0-4,0-8.09,0-12.13A28.08,28.08,0,0,1,25.11,28.51Z"/><path class="cls-2" d="M82.78,96c-1.42-3.27-3.31-5.89-7-6.76l.1-.29c1.16-.64,2.29-1.33,3.47-1.91a3.08,3.08,0,0,0,1.45-1.47c.59-1.17,1.25-2.31,1.95-3.57.68,1.24,1.34,2.38,1.93,3.55a3.28,3.28,0,0,0,1.54,1.52c1.14.58,2.25,1.22,3.53,1.92-1.3.72-2.46,1.39-3.65,2A2.85,2.85,0,0,0,84.8,92.3C84.19,93.51,83.5,94.67,82.78,96Z"/><path class="cls-2" d="M34.68,19.81c-1.32.73-2.55,1.43-3.81,2.09A2.47,2.47,0,0,0,29.77,23c-.65,1.26-1.36,2.48-2.08,3.79a23.18,23.18,0,0,1-1.31-2.4A5.82,5.82,0,0,0,23,21.09a25.87,25.87,0,0,1-2.35-1.28c1.33-.73,2.55-1.43,3.78-2.07a2.47,2.47,0,0,0,1.12-1.11c.65-1.25,1.35-2.48,2.09-3.81a18.3,18.3,0,0,1,1,1.78,7.16,7.16,0,0,0,4.22,4.22A15.78,15.78,0,0,1,34.68,19.81Z"/><path class="cls-13" d="M90.39,66.66c0-3.52,0-7,0-10.38,0-.54.17-.67.7-.68,2.5-.07,2.48-.09,2.47,2.41,0,3-.48,5.81-2.54,8.15-.11.13-.22.26-.34.38A1.2,1.2,0,0,1,90.39,66.66Z"/><path class="cls-13" d="M26.13,66.83a10.58,10.58,0,0,1-3-6.83c-.1-1.25,0-2.51,0-3.76,0-.49.15-.62.63-.64,2.42-.11,2.42-.12,2.42,2.32Z"/><path d="M47.1,49.46c2,0,3.94,0,5.91,0,.51,0,.69.1.71.66.07,2.42.09,2.42-2.3,2.42H42.36a10.37,10.37,0,0,0-7,2.42c-.43.37-.65.34-1-.07-1.79-1.88-1.81-1.87.42-3.29a13.79,13.79,0,0,1,7.43-2.13C43.84,49.45,45.47,49.46,47.1,49.46Z"/><path d="M70,49.46c2.31.1,5-.25,7.71.39a13.73,13.73,0,0,1,5.66,2.86c.42.35.43.58,0,.94-.54.51-1,1.34-1.58,1.52s-1.1-.7-1.69-1.06a10.85,10.85,0,0,0-5.7-1.59c-3.46,0-6.92,0-10.39,0-.74,0-1.05-.1-1-1,.07-2.12,0-2.12,2.1-2.12Z"/><path d="M58.33,87.64a16.43,16.43,0,0,1-9.4-2.77c-.58-.39-.71-.69-.22-1.25s.69-1.35,1.22-1.57,1.09.59,1.69.86a15.1,15.1,0,0,0,14.22-.6c.66-.38.9-.32,1.3.28,1.31,1.93,1.34,1.92-.73,3.06A16.46,16.46,0,0,1,58.33,87.64Z"/><path d="M44.48,67.79a9.12,9.12,0,0,1-8-4.72c-.33-.59-.39-.93.36-1.17s1.26-.74,1.87-.72.71.94,1.12,1.41a6.17,6.17,0,0,0,10-.89c.42-.77.78-.83,1.43-.45a4.06,4.06,0,0,0,.56.22c1.39.54,1.41.56.66,1.81A9.08,9.08,0,0,1,44.48,67.79Z"/><path d="M71.83,67.79a9.08,9.08,0,0,1-8-4.71c-.31-.54-.46-.93.34-1.17.64-.19,1.26-.75,1.87-.73s.77,1,1.2,1.46a6.11,6.11,0,0,0,9.83-.84c.38-.63.68-.84,1.29-.39l.09,0c2.13.9,2.14.91.73,2.76A9.19,9.19,0,0,1,71.83,67.79Z"/><path class="cls-10" d="M39.93,34.18c1.49,0,1.49,0,1.49,1.89,0,1.18,0,1.18-1.89,1.18-1.18,0-1.18,0-1.18-1.87C38.36,34.18,38.36,34.18,39.93,34.18Z"/><path class="cls-10" d="M47.55,35.77c0,1.48,0,1.48-1.89,1.48-1.17,0-1.17,0-1.17-1.88,0-1.19,0-1.19,1.88-1.19C47.55,34.18,47.55,34.18,47.55,35.77Z"/></g></g></svg>