<svg xmlns="http://www.w3.org/2000/svg" viewBox="0 0 117.22 117.22"><defs><style>.cls-1{fill:#fff;}.cls-2{fill:#fefefe;}.cls-3{fill:#fdfdfd;}.cls-4{fill:#fafafa;}.cls-5{fill:#020202;}</style></defs><title>--comida</title><g id="Capa_2" data-name="Capa 2"><g id="Capa_1-2" data-name="Capa 1"><rect class="cls-1" width="117.22" height="117.22"/><path class="cls-2" d="M58.56,4.43q26.24,0,52.48,0c.71,0,.85.14.85.85q0,52.27,0,104.54c0,.71-.14.85-.85.85q-52.27,0-104.54,0c-.71,0-.85-.14-.85-.85q0-21,0-41.94c.5,0,.56.46.72.77a4.87,4.87,0,0,0,4.74,2.86q14.25,0,28.5,0c1.83,0,1.83,0,2.46,1.66a8.41,8.41,0,0,0,7.59,5.15c.69,0,1.38,0,2.07,0a1,1,0,0,1,1.1,1.07c0,2.24,0,4.47,0,6.71a1.58,1.58,0,0,1-.78,1.38,12.86,12.86,0,0,0-5.9,8.37,1.22,1.22,0,0,1-1.34,1c-1.34,0-2.69,0-4,0a9,9,0,0,0-8.59,5.35,31.33,31.33,0,0,0-1.38,3.11A2.2,2.2,0,0,1,28.23,107a6.35,6.35,0,0,0-1.65,0c-.74.12-1.32.44-1.4,1.27s.4,1.26,1.29,1.48a6,6,0,0,0,1.44.11H89.26A4.7,4.7,0,0,0,91,109.7a1.3,1.3,0,0,0,.94-1.33,1.28,1.28,0,0,0-1-1.24,5.17,5.17,0,0,0-1.95-.11,2.27,2.27,0,0,1-2.65-1.72,27.87,27.87,0,0,0-1.52-3.39,8.88,8.88,0,0,0-8.07-5c-1.41-.06-2.82,0-4.23,0a1.41,1.41,0,0,1-1.57-1.28,12.27,12.27,0,0,0-5.46-7.85,2.35,2.35,0,0,1-1.19-2.22c0-1.93,0-3.86,0-5.78,0-1.23.22-1.45,1.47-1.44a10.86,10.86,0,0,0,5.34-.92,8,8,0,0,0,4-4.38c.55-1.51.57-1.53,2.24-1.53q14.36,0,28.71,0a4.75,4.75,0,0,0,4.7-2.9,4.66,4.66,0,0,0-3-6.34,15,15,0,0,0-3.9-.29c-1.61,0-1.76-.16-1.77-1.79q0-17.45,0-34.91a10.4,10.4,0,0,0-6.92-10.13,17.06,17.06,0,0,0-4.58-.67,2.05,2.05,0,0,1-1.74-1.06c-1.55-2.6-4-4.08-6.65-5.36a2,2,0,0,0-1.89.13c-2.53,1.38-4.93,2.91-6.41,5.51a1.39,1.39,0,0,1-1.26.75,9,9,0,0,0-.93,0,2.47,2.47,0,0,1-3-1.71,9.8,9.8,0,0,0-3-3.63A26.51,26.51,0,0,0,59.18,5C58.91,4.89,58.55,4.85,58.56,4.43Z"/><path d="M58.56,4.43a25.11,25.11,0,0,1,8.72,5.78,10.25,10.25,0,0,1,2.2,3.33,2,2,0,0,0,.19.47c.43.56,3.6.24,3.92-.39,1.57-3,4.34-4.59,7.23-6a1.72,1.72,0,0,1,1.59.16c2.77,1.49,5.5,3,6.93,6.06.24.51.65.42,1.05.41a11.63,11.63,0,0,1,6.73,1.53c3.15,2,5.12,4.78,5.2,8.51.15,7,.06,14,.06,21.07,0,5.13,0,10.26,0,15.39,0,.76.16,1,1,1a19.39,19.39,0,0,1,3.81.08A5,5,0,0,1,111.43,67a5,5,0,0,1-4.9,4.76c-8.88,0-17.76,0-26.65,0-1.17,0-2.34,0-3.51,0a.66.66,0,0,0-.78.59,8.55,8.55,0,0,1-8.8,6.22c-2.26-.06-2.26,0-2.26,2.28,0,1.76,0,3.51,0,5.27a1.06,1.06,0,0,0,.6,1.06,12.42,12.42,0,0,1,6.09,8.65c.11.57.32.78.94.76,1.51-.06,3-.06,4.54,0a9.07,9.07,0,0,1,8.55,5.57c.61,1.31,1.21,2.62,1.76,3.95a.82.82,0,0,0,.91.61c.86,0,1.72,0,2.58,0a1.7,1.7,0,1,1,0,3.39c-.27,0-.55,0-.83,0H27.42a7.92,7.92,0,0,1-1.33-.1,1.63,1.63,0,0,1-.08-3.18,12.19,12.19,0,0,1,3.08-.1,1,1,0,0,0,1.07-.7q.82-2,1.75-4a9.09,9.09,0,0,1,8.5-5.49q2.27-.07,4.54,0c.6,0,.84-.15,1-.74A12.42,12.42,0,0,1,52,87.21a1.06,1.06,0,0,0,.61-1c0-2.27,0-4.55,0-6.82,0-.69-.23-.78-.82-.77a11.94,11.94,0,0,1-5.66-.79,8.11,8.11,0,0,1-4.52-5.2c-.19-.66-.52-.8-1.16-.79-9.36,0-18.73-.07-28.09.06-3.21,0-5.54-.85-6.69-4V65.79c.69-2.94,2.37-4.3,5.45-4.41.83,0,1.65,0,2.48,0,.61,0,.88-.28.87-.88,0-.34,0-.69,0-1q0-17.2,0-34.39a11,11,0,0,1,7.79-10.65,21.61,21.61,0,0,1,4.08-.53,1.79,1.79,0,0,0,1.5-.88c1.65-2.71,4.24-4.25,7-5.56a2.21,2.21,0,0,1,2,.1c2.65,1.38,5.14,3,6.74,5.6a1.32,1.32,0,0,0,1.27.72,12.23,12.23,0,0,1,1.24,0,1.45,1.45,0,0,0,1.52-.95c2.09-4,5.71-6.31,9.64-8.2.34-.16.75-.09,1.09-.27Z"/><path class="cls-2" d="M58.35,4.43A28.09,28.09,0,0,0,50.05,10a10.44,10.44,0,0,0-2.44,3.65,1.41,1.41,0,0,1-.16.38c-.43.56-3.6.25-3.93-.38-1.56-3-4.34-4.59-7.22-6a1.63,1.63,0,0,0-1.5.11c-2.82,1.48-5.57,3-7,6.09-.27.56-.72.44-1.14.43A11.57,11.57,0,0,0,20,15.75c-3.19,2-5.14,4.82-5.22,8.6-.14,6.33-.05,12.66-.06,19,0,5.78,0,11.56,0,17.35,0,.82-.21,1.07-1,1a27,27,0,0,0-2.79,0,5.09,5.09,0,0,0-5.07,3.76,1.91,1.91,0,0,1-.2.34q0-30.27,0-60.54c0-.71.14-.85.85-.85Q32.42,4.45,58.35,4.43Z"/><path class="cls-2" d="M99,33.55c0,4.39,0,8.69,0,13,0,4.75,0,9.5,0,14.25,0,.71-.16.91-.9.91q-39.6,0-79.2,0c-.58,0-.91,0-.91-.79,0-9,0-18,0-27,0-.1,0-.2,0-.35a7,7,0,0,1,3.44,1.69,23.71,23.71,0,0,0,3.3,2.46c.49.26.52.64.52,1.11,0,2.65-.06,5.3.1,7.94a5,5,0,0,0,10-.1c.13-2.58.08-5.16.06-7.74a1.28,1.28,0,0,1,.71-1.32,22.6,22.6,0,0,0,3.21-2.42,7.81,7.81,0,0,1,10.21,0,31.28,31.28,0,0,0,3,2.32,11.07,11.07,0,0,0,12.82-.69c.7-.55,1.39-1.12,2.09-1.68a7.81,7.81,0,0,1,10.13,0,32,32,0,0,0,3,2.32,11.07,11.07,0,0,0,13-.75c.86-.68,1.72-1.37,2.6-2A6.72,6.72,0,0,1,99,33.55Z"/><path class="cls-2" d="M58.59,17.63q16.37,0,32.75,0c3.75,0,6.69,2.17,7.47,5.58.49,2.13.17,4.32.24,6.49,0,.45-.31.48-.61.53a11.18,11.18,0,0,0-5.11,2.54c-.59.48-1.17,1-1.77,1.43a7.71,7.71,0,0,1-9.81,0,39.1,39.1,0,0,0-3.19-2.45,11.1,11.1,0,0,0-13,.76c-.67.54-1.33,1.09-2,1.62a7.73,7.73,0,0,1-10.06,0,34.52,34.52,0,0,0-3-2.33,11.09,11.09,0,0,0-12.91.66A22.47,22.47,0,0,1,33,35.58a1.75,1.75,0,0,0-.89,1.83c0,2.89,0,5.78,0,8.68a1.75,1.75,0,0,1-.93,1.71,1.57,1.57,0,0,1-1.75-.16A1.81,1.81,0,0,1,28.77,46c0-2.75,0-5.51,0-8.26a2.3,2.3,0,0,0-1.54-2.5A12.59,12.59,0,0,1,24.07,33a11.69,11.69,0,0,0-5.45-2.76c-.33-.05-.57-.16-.55-.58a56,56,0,0,1,.14-5.78,7.18,7.18,0,0,1,6.71-6.19c1.65-.09,3.3,0,5,0Z"/><path class="cls-2" d="M83.55,106.7h-50c1-1.81,1.3-3.91,3-5.27a6,6,0,0,1,4-1.45c3.48,0,7,0,10.43,0A8.7,8.7,0,0,0,52,99.92a1.5,1.5,0,0,0,1.41-1.51,1.55,1.55,0,0,0-1.29-1.73,7.86,7.86,0,0,0-2.26-.08c-.67,0-.74-.22-.57-.78a9.14,9.14,0,0,1,4.95-6A2.65,2.65,0,0,0,56,87c-.07-2.51,0-5,0-7.54,0-.75.21-.92.92-.89a31.27,31.27,0,0,0,3.41,0c.75,0,.89.23.88.92,0,2.58,0,5.16,0,7.74a2.4,2.4,0,0,0,1.56,2.49,9.26,9.26,0,0,1,5,5.84c.26.79.2,1.07-.74,1-2.58-.06-5.16,0-7.74,0a3,3,0,0,0-1.32.19,1.57,1.57,0,0,0-1,1.65,1.5,1.5,0,0,0,1.25,1.45,6.76,6.76,0,0,0,1.33.1q8.47,0,16.94,0a5.89,5.89,0,0,1,5.83,3.77C82.68,104.69,83.09,105.64,83.55,106.7Z"/><path class="cls-2" d="M58.56,68.46h-47a3.6,3.6,0,0,1-1.43-.15,1.56,1.56,0,0,1-1.06-1.7,1.51,1.51,0,0,1,1.35-1.46,7.28,7.28,0,0,1,1.13-.07h94c1.72,0,2.55.57,2.51,1.73s-.85,1.65-2.51,1.65Z"/><path class="cls-3" d="M45,71.81c8.92,0,17.76,0,26.6,0,.66,0,.69.2.41.69a5,5,0,0,1-4.55,2.72c-5.92,0-11.83,0-17.75,0A4.72,4.72,0,0,1,45,71.81Z"/><path class="cls-3" d="M66.08,14.21H51.15a4.68,4.68,0,0,1,1.47-2,24.06,24.06,0,0,1,5.46-3.83c.24-.13.46-.28.76-.11,2.52,1.42,5,2.88,6.78,5.26C65.77,13.67,65.87,13.88,66.08,14.21Z"/><path class="cls-4" d="M31.47,14.18a14.36,14.36,0,0,1,3.94-3,.5.5,0,0,1,.56,0,14.13,14.13,0,0,1,3.93,3Z"/><path class="cls-4" d="M85.67,14.21H77.18a14.64,14.64,0,0,1,4.06-3.08c.18-.1.32,0,.47.07A14.15,14.15,0,0,1,85.67,14.21Z"/><path class="cls-5" d="M88.51,49.56a1.7,1.7,0,0,1-1.65-1.64,1.73,1.73,0,0,1,1.7-1.71A1.68,1.68,0,0,1,90.19,48,1.65,1.65,0,0,1,88.51,49.56Z"/><path class="cls-5" d="M81.81,56.31a1.69,1.69,0,0,1-1.71-1.68A1.72,1.72,0,0,1,81.75,53a1.67,1.67,0,0,1,1.69,1.69A1.65,1.65,0,0,1,81.81,56.31Z"/></g></g></svg>