<svg xmlns="http://www.w3.org/2000/svg" viewBox="0 0 117.22 117.22"><defs><style>.cls-1{fill:#fff;}</style></defs><title>--eventos</title><g id="Capa_2" data-name="Capa 2"><g id="Capa_1-2" data-name="Capa 1"><rect class="cls-1" width="117.22" height="117.22"/><path class="cls-1" d="M7.72,7.61H110.1q0,51.09,0,102.18H7.72Q7.72,58.7,7.72,7.61ZM40,63.69c.15.16.27.27.37.4q8.29,10.26,16.56,20.53a2.17,2.17,0,0,1,.35,1.27c0,4.55,0,9.09,0,13.64a1.39,1.39,0,0,1-1,1.52c-2.86,1.22-5.7,2.51-8.54,3.79-1.17.53-1.61,1.67-.84,2.45a2.68,2.68,0,0,0,1.74.67c6.47,0,12.94,0,19.42,0,.5,0,1,0,1.49,0a1.54,1.54,0,0,0,1.57-1.27,1.5,1.5,0,0,0-.85-1.74c-.26-.15-.54-.26-.81-.38l-9-4c0-5.07,0-10.12,0-15.16a1.91,1.91,0,0,1,.52-1q11.76-14.56,23.54-29.1c.52-.64,1-1.28.59-2.15s-1.18-.94-2-.94c-5,0-10,0-14.94,0H66.89c.16-.91.32-1.72.43-2.53a1.57,1.57,0,0,1,1.06-1.37c4.78-2.13,9.54-4.31,14.31-6.47.65-.3,1.29-.61,2-.94L83.36,38c-6,2.72-11.89,5.36-17.75,8.08a2.55,2.55,0,0,0-1.11,1.49,24,24,0,0,0-.74,3.7c-.1.74-.42.88-1.1.88-5.18,0-10.36,0-15.53,0-.29,0-.58,0-.94-.05a14.57,14.57,0,0,0-3.39-9.48,13.76,13.76,0,0,0-8.72-4.94A14.33,14.33,0,0,0,21.65,62,14.54,14.54,0,0,0,40,63.69ZM65.28,27l-1.08-.13a4.75,4.75,0,1,0-.7,9.47,4.7,4.7,0,0,0,4.95-4.63q.05-6.47,0-12.94a1.29,1.29,0,0,1,.91-1.4c2.57-1.16,5.1-2.38,7.66-3.57.31-.14.63-.26,1-.39v9.82L77,23.09a4.76,4.76,0,1,0,4.19,4.6c0-5.41,0-10.82,0-16.23,0-2.13-1-2.74-2.92-1.82L68,14.48c-3.06,1.44-2.76,1-2.77,4.34C65.28,21.54,65.28,24.25,65.28,27Zm31.87-6.42-.72-.13a4.77,4.77,0,1,0,3.9,4.61c0-3.61,0-7.23,0-10.89l8.07-1.79-.67-3.16-9.15,2a1.69,1.69,0,0,0-1.44,1.85C97.16,15.57,97.15,18,97.15,20.58Z"/><path d="M40,63.69A14.54,14.54,0,0,1,21.65,62,14.33,14.33,0,0,1,34.08,37.7a13.76,13.76,0,0,1,8.72,4.94,14.57,14.57,0,0,1,3.39,9.48c.36,0,.65.05.94.05,5.18,0,10.36,0,15.53,0,.68,0,1-.14,1.1-.88a24,24,0,0,1,.74-3.7,2.55,2.55,0,0,1,1.11-1.49C71.47,43.4,77.36,40.75,83.36,38l1.32,2.87c-.7.33-1.34.65-2,.94-4.77,2.17-9.53,4.34-14.31,6.47a1.57,1.57,0,0,0-1.06,1.37c-.1.82-.27,1.63-.43,2.53h1.33c5,0,10,0,14.94,0,.84,0,1.61.08,2,.94s-.07,1.51-.59,2.15Q72.81,69.85,61,84.41a1.91,1.91,0,0,0-.52,1c0,5,0,10.09,0,15.16l9,4c.27.12.55.24.81.38a1.5,1.5,0,0,1,.85,1.74A1.54,1.54,0,0,1,69.59,108c-.5,0-1,0-1.49,0-6.47,0-12.94,0-19.42,0a2.68,2.68,0,0,1-1.74-.67c-.76-.78-.33-1.93.84-2.45,2.84-1.28,5.68-2.57,8.54-3.79a1.39,1.39,0,0,0,1-1.52c0-4.55,0-9.09,0-13.64a2.17,2.17,0,0,0-.35-1.27Q48.69,74.33,40.39,64.09C40.28,64,40.16,63.85,40,63.69Zm-2.08-2.57c-1.61-2-3.17-3.92-4.74-5.85-.53-.64-1-1.3-.53-2.16a1.86,1.86,0,0,1,1.95-.89c1.83,0,3.65,0,5.48,0h2.84A11,11,0,1,0,25.1,60.67C28.84,63.65,34.56,63.88,37.94,61.12Zm25-5.63H37.56c2,2.47,3.87,4.8,5.72,7.18a1.66,1.66,0,0,0,1.49.73c5.24,0,10.48,0,15.72,0h1ZM64.27,66.6l-1.61,8.22-3.15-.59,1.39-7.61H46.5L58.91,81.94,71.43,66.6Zm.49-3.22h4.63c1.52,0,3.26.42,4.51-.18s2-2.23,3-3.41l3.5-4.33H66.23ZM56.2,104.74h5.44A3.82,3.82,0,0,0,56.2,104.74Z"/><path d="M65.28,27c0-2.74,0-5.46,0-8.18,0-3.32-.29-2.9,2.77-4.34L78.3,9.64c1.94-.92,2.92-.31,2.92,1.82,0,5.41,0,10.82,0,16.23A4.78,4.78,0,1,1,77,23.09l.95.14V13.41c-.32.13-.65.24-1,.39-2.55,1.19-5.09,2.42-7.66,3.57a1.29,1.29,0,0,0-.91,1.4q.06,6.47,0,12.94a4.7,4.7,0,0,1-4.95,4.63,4.75,4.75,0,1,1,.7-9.47Zm-1.56,6.1a1.59,1.59,0,1,0-1.62-1.53A1.61,1.61,0,0,0,63.72,33.1ZM76.4,26.15a1.62,1.62,0,0,0-1.55,1.61A1.59,1.59,0,1,0,78,27.69,1.63,1.63,0,0,0,76.4,26.15Z"/><path d="M97.15,20.58c0-2.56,0-5,0-7.46a1.69,1.69,0,0,1,1.44-1.85l9.15-2,.67,3.16-8.07,1.79c0,3.67,0,7.28,0,10.89a4.78,4.78,0,1,1-3.9-4.61Zm-1.6,6.14A1.59,1.59,0,1,0,94,25.15,1.61,1.61,0,0,0,95.55,26.72Z"/><path class="cls-1" d="M37.94,61.12c-3.38,2.76-9.09,2.53-12.84-.45a11,11,0,1,1,17.83-8.44H40.09c-1.83,0-3.65,0-5.48,0a1.86,1.86,0,0,0-1.95.89c-.44.86,0,1.51.53,2.16C34.77,57.19,36.33,59.13,37.94,61.12ZM38.14,49V45.91H35.08V49Zm-11-1.53v3.1h3v-3.1Zm3.06,11.12V55.49h-3v3.09Z"/><path class="cls-1" d="M63,55.49l-1.46,7.89h-1c-5.24,0-10.48,0-15.72,0a1.66,1.66,0,0,1-1.49-.73c-1.85-2.38-3.75-4.71-5.72-7.18Z"/><path class="cls-1" d="M64.27,66.6h7.17L58.91,81.94,46.5,66.63H60.9l-1.39,7.61,3.15.59Z"/><path class="cls-1" d="M64.76,63.38l1.47-7.92H80.36l-3.5,4.33c-1,1.18-1.71,2.81-3,3.41s-3,.17-4.51.18Z"/><path class="cls-1" d="M56.2,104.74a3.82,3.82,0,0,1,5.44,0Z"/><path class="cls-1" d="M63.72,33.1a1.59,1.59,0,1,1,1.55-1.6A1.6,1.6,0,0,1,63.72,33.1Z"/><path class="cls-1" d="M76.4,26.15A1.63,1.63,0,0,1,78,27.69a1.59,1.59,0,1,1-3.17.07A1.62,1.62,0,0,1,76.4,26.15Z"/><path class="cls-1" d="M95.55,26.72a1.59,1.59,0,1,1,1.59-1.56A1.6,1.6,0,0,1,95.55,26.72Z"/><path d="M38.14,49H35.08V45.91h3.06Z"/><path d="M27.1,47.46h3v3.1h-3Z"/><path d="M30.16,58.58h-3V55.49h3Z"/></g></g></svg>