<svg xmlns="http://www.w3.org/2000/svg" viewBox="0 0 117.22 117.22"><defs><style>.cls-1{fill:#fff;}</style></defs><title>--hogar</title><g id="Capa_2" data-name="Capa 2"><g id="Capa_1-2" data-name="Capa 1"><rect class="cls-1" width="117.22" height="117.22"/><path class="cls-1" d="M7.08,7H110.61q0,51.76,0,103.53H7.08Q7.08,58.77,7.08,7ZM34.27,95.66H83.4c.09.29.19.57.27.86.85,3,1.72,5.92,2.55,8.89a1.79,1.79,0,0,0,1.95,1.51c1.41,0,2.82,0,4.23,0s1.9-.6,1.91-1.92c0-2.72,0-5.44,0-8.16,0-.39,0-.78,0-1.15,3.29-.49,4.83-2.28,4.83-5.48q0-9.92,0-19.84A1.15,1.15,0,0,1,100,69a10.64,10.64,0,0,0,7.17-9.59,10.64,10.64,0,0,0-5.88-10.73,32.66,32.66,0,0,0-5.34-1.82c0-1.37,0-3,0-4.71A24.15,24.15,0,0,0,72,18.31q-13.19-.1-26.38,0A24.12,24.12,0,0,0,23.16,34.47a24.53,24.53,0,0,0-1.37,8.3c0,1.5,0,3,0,4.48l-.44.05a11.34,11.34,0,0,0-10.75,9.81,11.12,11.12,0,0,0,7.29,12c.62.24.68.58.68,1.13q0,9.82,0,19.64c0,3.57,1.31,5.17,4.83,5.85,0,.35,0,.71,0,1.08,0,2.72,0,5.44,0,8.16,0,1.38.58,1.94,2,2h3.42c2.12,0,2.3-.14,2.87-2.14C32.53,101.74,33.4,98.72,34.27,95.66Z"/><path d="M34.27,95.66c-.88,3.06-1.74,6.08-2.61,9.11-.57,2-.75,2.14-2.87,2.14H25.37c-1.39,0-2-.58-2-2,0-2.72,0-5.44,0-8.16,0-.36,0-.73,0-1.08-3.53-.68-4.83-2.29-4.83-5.85q0-9.82,0-19.64c0-.54-.06-.89-.68-1.13a11.12,11.12,0,0,1-7.29-12A11.34,11.34,0,0,1,21.35,47.3l.44-.05c0-1.48,0-3,0-4.48a24.53,24.53,0,0,1,1.37-8.3A24.12,24.12,0,0,1,45.62,18.31q13.19-.09,26.38,0A24.15,24.15,0,0,1,95.9,42.2c0,1.67,0,3.34,0,4.71a32.66,32.66,0,0,1,5.34,1.82,10.64,10.64,0,0,1,5.88,10.73A10.64,10.64,0,0,1,100,69a1.15,1.15,0,0,0-.84,1.32q0,9.92,0,19.84c0,3.2-1.55,5-4.83,5.48,0,.37,0,.76,0,1.15,0,2.72,0,5.44,0,8.16,0,1.32-.59,1.9-1.91,1.92s-2.82,0-4.23,0a1.79,1.79,0,0,1-1.95-1.51c-.83-3-1.69-5.93-2.55-8.89-.08-.29-.18-.57-.27-.86ZM84.63,63.5c0-1.41,0-2.88,0-4.35A11.29,11.29,0,0,1,92.08,48a1.14,1.14,0,0,0,.58-.83c.05-1.68,0-3.36,0-5A20.92,20.92,0,0,0,72.08,21.53q-13.24-.1-26.48,0a21,21,0,0,0-19.42,14C24.81,39.36,25,43.34,25,47.33c0,.22.33.53.58.63A11.27,11.27,0,0,1,33.07,59c0,1.51,0,3,0,4.45ZM58.78,92.41H93.31c2.24,0,2.6-.36,2.6-2.64q0-10.52,0-21c0-1.61.28-1.91,1.88-2.33a7.74,7.74,0,0,0,5.92-5.84,8,8,0,1,0-15.82-2.09c-.09,6.28,0,12.55,0,18.83,0,1.73-.5,2.24-2.2,2.24H32.09c-1.76,0-2.24-.49-2.24-2.29,0-6.28,0-12.55,0-18.83a8,8,0,1,0-10,8c1.7.43,1.92.71,1.92,2.5q0,10.57,0,21.15c0,1.93.44,2.39,2.35,2.39ZM84.63,76.26c0-2.52,0-4.93,0-7.35,0-1.79-.48-2.28-2.25-2.28H35.08c-1.44,0-2,.57-2,2s0,2.82,0,4.23c0,1.13,0,2.25,0,3.39Zm-58,19.42v8h2l2.26-8Zm64.33,8v-8H86.79l2.27,8Z"/><path class="cls-1" d="M84.63,63.5H33.07c0-1.44,0-2.94,0-4.45A11.27,11.27,0,0,0,25.62,48c-.25-.1-.58-.42-.58-.63,0-4-.23-8,1.16-11.84a21,21,0,0,1,19.42-14q13.24-.08,26.48,0A20.92,20.92,0,0,1,92.68,42.09c0,1.68,0,3.36,0,5a1.14,1.14,0,0,1-.58.83,11.29,11.29,0,0,0-7.45,11.2C84.63,60.62,84.63,62.09,84.63,63.5Z"/><path class="cls-1" d="M58.78,92.41H24.14c-1.9,0-2.35-.45-2.35-2.39q0-10.57,0-21.15c0-1.78-.22-2.07-1.92-2.5a8.05,8.05,0,1,1,10-8c.06,6.28,0,12.55,0,18.83,0,1.8.48,2.29,2.24,2.29H85.66c1.69,0,2.19-.51,2.2-2.24,0-6.28-.06-12.55,0-18.83a8,8,0,1,1,15.82,2.09,7.74,7.74,0,0,1-5.92,5.84c-1.6.42-1.88.72-1.88,2.33q0,10.52,0,21c0,2.28-.35,2.64-2.6,2.64Z"/><path class="cls-1" d="M84.63,76.26H33.07c0-1.13,0-2.26,0-3.39,0-1.41,0-2.82,0-4.23s.56-2,2-2h47.3c1.77,0,2.25.49,2.25,2.28C84.63,71.32,84.63,73.74,84.63,76.26Z"/><path class="cls-1" d="M26.68,95.68H30.9l-2.26,8h-2Z"/><path class="cls-1" d="M91,103.66H89.06l-2.27-8H91Z"/></g></g></svg>