<svg xmlns="http://www.w3.org/2000/svg" viewBox="0 0 117.22 117.22"><defs><style>.cls-1{fill:#fff;}.cls-2{fill:#fefefe;}.cls-3{fill:#fdfdfd;}.cls-4{fill:#fbfbfb;}</style></defs><title>--infantil</title><g id="Capa_2" data-name="Capa 2"><g id="Capa_1-2" data-name="Capa 1"><rect class="cls-1" width="117.22" height="117.22"/><path class="cls-2" d="M8.06,58.64q0-25.46,0-50.91c0-.69.14-.83.83-.83q50.91,0,101.83,0c.69,0,.83.14.83.83q0,50.91,0,101.83c0,.69-.14.83-.83.83q-50.91,0-101.83,0c-.69,0-.83-.13-.83-.83Q8.08,84.09,8.06,58.64Z"/><path d="M40.3,79.82H26.71c-5.5,0-9.15-3.67-9.16-9.16q0-7.56,0-15.12c0-.63,0-1-.83-1.13A4.26,4.26,0,0,1,13.52,50a4.32,4.32,0,0,1,3.73-4,9.78,9.78,0,0,1,1.41-.07H37c.15-.37-.15-.51-.29-.7-3.11-4-6.23-8.08-9.33-12.14a1.29,1.29,0,0,0-1.17-.57c-3.49,0-7,0-10.48,0a3.7,3.7,0,0,1-1.09-.12,1.47,1.47,0,0,1-1.11-1.69A1.43,1.43,0,0,1,15,29.3c4.27,0,8.53,0,12.8,0,.82,0,1.22.62,1.65,1.18q5.63,7.3,11.23,14.61a1.82,1.82,0,0,0,1.65.84q4.94-.07,9.88,0c.77,0,.93-.21.93-1q0-15.07,0-30.14c0-3,2.14-5.06,5-4.7A3.84,3.84,0,0,1,61,11.89a1.44,1.44,0,0,0,1.48.72c5.11,0,10.21,0,15.32,0a3,3,0,0,1,2.32.95Q87,20.52,94,27.44a3.08,3.08,0,0,1,1,2.4c0,4.87,0,9.74,0,14.62,0,1.44,0,1.45,1.4,1.44a6.14,6.14,0,0,1,2.09.26,4.37,4.37,0,0,1,2.93,4.26,4.27,4.27,0,0,1-3.25,4c-.71.16-.8.43-.8,1,0,5,0,10.08,0,15.12,0,5.56-3.64,9.21-9.2,9.22H74.64c-.06.39.25.46.44.6,2.89,2.13,5.8,4.24,8.69,6.37a2.23,2.23,0,0,0,1.1.42,10,10,0,0,1-1.19,19.85,9.51,9.51,0,0,1-8.5-4.87,1.34,1.34,0,0,0-1.33-.76q-16.38,0-32.76,0a1.33,1.33,0,0,0-1.34.74A9.87,9.87,0,0,1,28,106.53a10,10,0,0,1,2.14-19.34,1.45,1.45,0,0,0,.76-.2L40.36,80Z"/><path class="cls-2" d="M48.09,54.57h1.07q21.92,0,43.84,0c.93,0,1.16.25,1.15,1.16,0,5,0,9.94,0,14.92,0,3.75-2.2,6-5.93,6H70.66a2.16,2.16,0,0,1-1.39-.43q-3.47-2.59-7-5.12A1,1,0,0,1,61.77,70a5.1,5.1,0,0,0-5.44-5.56,1,1,0,0,1-1-.36c-2.29-3-4.61-6-6.93-9C48.29,54.95,48.24,54.83,48.09,54.57Z"/><path class="cls-2" d="M32.46,54.57c3.56,0,7.12,0,10.68,0a1.38,1.38,0,0,1,1.25.61q4,5.21,8,10.36a.91.91,0,0,1,0,1.28,4.61,4.61,0,0,0-.62,4,.86.86,0,0,1-.4,1.14c-1.94,1.38-3.86,2.79-5.77,4.21a1.89,1.89,0,0,1-1.19.41c-6,0-12,0-18,0a5.39,5.39,0,0,1-5.63-5.75c0-5.1,0-10.21,0-15.31,0-.85.28-1,1-1C25.34,54.59,28.9,54.57,32.46,54.57Z"/><path class="cls-2" d="M79.75,87.93a10,10,0,0,0-4.8,4.45c-.2.37-.49.38-.84.38H40.76c-.35,0-.64,0-.83-.39a10,10,0,0,0-4.83-4.47c3.61-2.64,7.16-5.22,10.69-7.83a1.62,1.62,0,0,1,1-.25H68.1a1.76,1.76,0,0,1,1.13.3q5.14,3.8,10.29,7.57A2.12,2.12,0,0,1,79.75,87.93Z"/><path class="cls-2" d="M78.86,17c3.85,3.82,7.61,7.57,11.38,11.3.41.4.36.57-.13.84Q77.53,36,65,43c-.17.09-.32.27-.55.14Z"/><path class="cls-2" d="M62,41a1.47,1.47,0,0,1-.16-1c0-7.69,0-15.38,0-23.08,0-.9.23-1.11,1.11-1.1,4.23,0,8.46,0,12.92,0Z"/><path class="cls-2" d="M91.75,31.87c0,4.57,0,9,0,13.37,0,.4,0,.68-.56.68q-12.13,0-24.26,0a1.48,1.48,0,0,1-.25-.1Z"/><path class="cls-3" d="M43.91,49.13H96.77c.79,0,1.44.23,1.42,1.17s-.65,1.06-1.4,1.06h-9c-13.5,0-27,0-40.5.06C45.5,51.41,44.72,50.55,43.91,49.13Z"/><path class="cls-3" d="M57.53,96c5.11,0,10.21,0,15.32,0,.7,0,1,.07.94.9-.11,1.34,0,1.35-1.4,1.35H42.26c-.37,0-1,.23-1.07-.2a4.46,4.46,0,0,1,0-1.89c.06-.3.53-.13.82-.13Z"/><path class="cls-3" d="M56.33,29.79q0-7.35,0-14.7a5.24,5.24,0,0,1,.06-1,1,1,0,0,1,1.09-.85,1,1,0,0,1,1,.89,6.76,6.76,0,0,1,0,.9q0,14.9,0,29.8c0,.34.21.91-.18,1a4.66,4.66,0,0,1-1.89,0c-.3-.06-.15-.53-.15-.82Q56.33,37.39,56.33,29.79Z"/><path class="cls-2" d="M83.67,103.74a6.74,6.74,0,0,1,.07-13.48,6.74,6.74,0,1,1-.07,13.48Z"/><path class="cls-2" d="M37.91,97.17a6.73,6.73,0,0,1-6.77,6.67,6.73,6.73,0,0,1,0-13.47A6.7,6.7,0,0,1,37.91,97.17Z"/><path class="cls-3" d="M41.42,51.34H18.16c-.75,0-1.39-.17-1.42-1s.61-1.18,1.41-1.18H39.09a1.09,1.09,0,0,1,1,.48C40.48,50.14,40.89,50.66,41.42,51.34Z"/><path class="cls-4" d="M64.31,76.53H50.65l3.21-2.38c.3-.23.55-.07.84,0a5.17,5.17,0,0,0,4.89-.49.64.64,0,0,1,.87,0C61.66,74.61,62.88,75.49,64.31,76.53Z"/><path class="cls-3" d="M56.7,71.37a1.82,1.82,0,0,1-1.85-1.83,1.88,1.88,0,0,1,3.75,0A2,2,0,0,1,56.7,71.37Z"/><path d="M83.76,92a5.09,5.09,0,1,1-5.1,5A5.07,5.07,0,0,1,83.76,92Z"/><path d="M26.19,97.07a5.05,5.05,0,0,1,5-5.07,5.09,5.09,0,1,1-5,5.07Z"/><path class="cls-3" d="M85.52,97.06a1.82,1.82,0,0,1-1.8,1.87,1.86,1.86,0,0,1,0-3.71A1.83,1.83,0,0,1,85.52,97.06Z"/><path class="cls-3" d="M33,97.1a1.88,1.88,0,0,1-1.86,1.84,1.86,1.86,0,0,1,0-3.71A1.87,1.87,0,0,1,33,97.1Z"/></g></g></svg>