<svg xmlns="http://www.w3.org/2000/svg" viewBox="0 0 117.22 117.22"><defs><style>.cls-1{fill:#fff;}</style></defs><title>--papeleria</title><g id="Capa_2" data-name="Capa 2"><g id="Capa_1-2" data-name="Capa 1"><rect class="cls-1" width="117.22" height="117.22"/><path class="cls-1" d="M7.73,109.73V7.6H110.1V109.73Zm51.18-2.93h46.5c1.32,0,1.72-.39,1.72-1.71q0-28.68,0-57.36a2,2,0,0,0-.68-1.41q-5.77-4.49-11.63-8.87A1.74,1.74,0,0,1,94,35.88c0-4.58,0-9.16,0-13.74C94,20.33,93.69,20,91.9,20,85.59,20,79.28,20,73,20a3.23,3.23,0,0,1-1.79-.61c-3.72-2.78-7.39-5.62-11.09-8.44-1-.75-1.41-.74-2.39,0-3.69,2.82-7.37,5.66-11.09,8.44a3.23,3.23,0,0,1-1.79.6c-6.31,0-12.61,0-18.92,0-1.78,0-2.13.36-2.14,2.17,0,4.61,0,9.23,0,13.84a1.78,1.78,0,0,1-.54,1.25c-3.9,3-7.86,6-11.76,9a2.15,2.15,0,0,0-.76,1.47q-.05,28.68,0,57.36c0,1.31.4,1.7,1.73,1.7Z"/><path d="M58.91,106.8H12.41c-1.33,0-1.73-.39-1.73-1.7q0-28.68,0-57.36a2.15,2.15,0,0,1,.76-1.47c3.9-3,7.85-6,11.76-9A1.78,1.78,0,0,0,23.75,36c0-4.61,0-9.23,0-13.84,0-1.81.35-2.17,2.14-2.17,6.31,0,12.61,0,18.92,0a3.23,3.23,0,0,0,1.79-.6c3.72-2.78,7.4-5.62,11.09-8.44,1-.75,1.41-.76,2.39,0,3.69,2.82,7.37,5.66,11.09,8.44A3.23,3.23,0,0,0,73,20c6.31,0,12.61,0,18.92,0,1.79,0,2.14.36,2.14,2.16,0,4.58,0,9.16,0,13.74a1.74,1.74,0,0,0,.78,1.57q5.85,4.39,11.63,8.87a2,2,0,0,1,.68,1.41q0,28.68,0,57.36c0,1.32-.4,1.71-1.72,1.71Zm32.4-84H26.56c0,.33,0,.59,0,.85q0,16.53,0,33.06a2.05,2.05,0,0,0,.7,1.38q11,9,22,17.91a15.52,15.52,0,0,0,19.26.07c7.33-5.92,14.62-11.9,21.95-17.82a2.1,2.1,0,0,0,.86-1.84q0-16.23,0-32.45C91.31,23.62,91.31,23.26,91.31,22.82ZM101.64,104c-.36-.31-.52-.47-.7-.61Q85.6,91.34,70.27,79.27a1,1,0,0,0-1.45,0,18,18,0,0,1-16.57,1.65,45.41,45.41,0,0,1-4.13-2L16.12,104ZM46,77,13.52,50.53v52Zm58.28-26.46L71.8,77l32.51,25.54ZM94.13,40.39V55.26l9.41-7.67Zm-79.85,7.2,9.42,7.67V40.39ZM67.35,19.92c-2.83-2.16-5.44-4.18-8.08-6.15a1,1,0,0,0-.91.14c-1.6,1.18-3.17,2.4-4.74,3.61l-3.14,2.4Z"/><path class="cls-1" d="M91.31,22.82c0,.44,0,.79,0,1.15q0,16.23,0,32.45a2.1,2.1,0,0,1-.86,1.84c-7.33,5.92-14.62,11.9-21.95,17.82A15.52,15.52,0,0,1,49.25,76q-11-8.94-22-17.91a2.05,2.05,0,0,1-.7-1.38q-.06-16.53,0-33.06c0-.26,0-.52,0-.85Zm-32.4,33h21c1.12,0,1.71-.47,1.72-1.34S81,53.09,80,53.06H38.36c-.43,0-1-.07-1.25.15s-.88.92-.84,1.36.64.87,1.07,1.2c.19.15.58,0,.88,0Zm0-21.34h20.5a5.52,5.52,0,0,0,1,0,1.37,1.37,0,0,0,0-2.72,4.54,4.54,0,0,0-.89,0H38.25c-.33,0-.76-.1-1,.07a2.85,2.85,0,0,0-1,1.27c-.19.69.33,1.19,1,1.37a4.15,4.15,0,0,0,1.09.06Zm0,7.94H38.47c-.33,0-.67,0-1,0a1.35,1.35,0,0,0-.15,2.67,4.64,4.64,0,0,0,.89.05H79.55a4.31,4.31,0,0,0,1.09-.09,1.12,1.12,0,0,0,.94-1.4,2.76,2.76,0,0,0-1.1-1.2c-.22-.16-.64,0-1,0Z"/><path class="cls-1" d="M101.64,104H16.12l32-25.15a45.41,45.41,0,0,0,4.13,2,18,18,0,0,0,16.57-1.65,1,1,0,0,1,1.45,0q15.32,12.08,30.66,24.12C101.12,103.53,101.28,103.69,101.64,104Z"/><path class="cls-1" d="M46,77l-32.5,25.54v-52Z"/><path class="cls-1" d="M104.31,50.53v52L71.8,77Z"/><path class="cls-1" d="M94.13,40.39l9.41,7.2-9.41,7.67Z"/><path class="cls-1" d="M14.28,47.59l9.42-7.2V55.26Z"/><path class="cls-1" d="M67.35,19.92H50.48l3.14-2.4c1.58-1.21,3.14-2.43,4.74-3.61a1,1,0,0,1,.91-.14C61.92,15.74,64.53,17.76,67.35,19.92Z"/><path d="M58.91,55.81H38.21c-.3,0-.69.1-.88,0-.43-.33-1-.76-1.07-1.2s.44-1,.84-1.36.82-.15,1.25-.15H80c1.08,0,1.69.55,1.68,1.42s-.6,1.33-1.72,1.34Z"/><path d="M58.92,34.47H38.32a4.15,4.15,0,0,1-1.09-.06c-.67-.19-1.19-.68-1-1.37a2.85,2.85,0,0,1,1-1.27c.21-.17.64-.07,1-.07H79.54a4.54,4.54,0,0,1,.89,0,1.37,1.37,0,0,1,0,2.72,5.52,5.52,0,0,1-1,0Z"/><path d="M58.88,42.41H79.5c.33,0,.75-.11,1,0a2.76,2.76,0,0,1,1.1,1.2,1.12,1.12,0,0,1-.94,1.4,4.31,4.31,0,0,1-1.09.09H38.22a4.64,4.64,0,0,1-.89-.05,1.35,1.35,0,0,1,.15-2.67c.33,0,.66,0,1,0Z"/></g></g></svg>