<svg xmlns="http://www.w3.org/2000/svg" viewBox="0 0 117.8 117.52"><defs><style>.cls-1{fill:#fff;}</style></defs><title>--regalos</title><g id="Capa_2" data-name="Capa 2"><g id="Capa_1-2" data-name="Capa 1"><rect class="cls-1" width="117.22" height="117.22"/><path class="cls-1" d="M117.8,117.52H.14V.1H117.8Zm-17-73.28h7.26V40.61h-7.26V33.35H97.21c0,2.47,0,4.87,0,7.26H89.95v3.63h7.26V51.5h3.63Zm-82.42-22h7.26V18.63H18.41V11.37H14.79c0,2.47,0,4.87,0,7.26H7.52v3.63h7.26v7.26h3.63ZM69.7,18.6H77V15H69.7V7.71H66.07c0,2.47,0,4.87,0,7.26H58.81V18.6h7.26v7.26H69.7ZM58.85,51.21l-.26,0c-1-2.69-1.84-5.4-2.89-8.06a9.81,9.81,0,0,0-9.31-6.19,9.89,9.89,0,0,0-6.63,17.13c.37.35.76.68,1.36,1.22H24V71.75h4.57v38.38H89V71.68h4.5V55.22H76.35c.48-.4.77-.64,1-.88A9.91,9.91,0,1,0,61.5,43.72C60.6,46.22,59.73,48.72,58.85,51.21ZM99,24.11a5.49,5.49,0,1,0-5.5-5.54A5.53,5.53,0,0,0,99,24.11ZM13,80.89a5.49,5.49,0,1,0,5.46,5.58A5.52,5.52,0,0,0,13,80.89ZM42.29,27.68h3.56V24.18H42.29ZM16.51,46V42.48H13V46Zm91.6,34.79V77.3H104.6v3.53Z"/><path d="M58.85,51.21c.88-2.5,1.75-5,2.64-7.49A9.92,9.92,0,1,1,77.4,54.34c-.28.25-.57.48-1,.88H93.47V71.68H89v38.45H28.56V71.75H24V55.28H41.12c-.6-.54-1-.87-1.36-1.22A9.9,9.9,0,1,1,55.7,43.12c1,2.65,1.93,5.37,2.89,8.06ZM32.22,106.45H51.31V71.79H32.22Zm53,0V71.82H66.12v34.66Zm-22.89,0V59H55.12v47.48ZM51.35,59H27.68v9H51.35Zm38.46,0H66.15v9H89.81ZM56,54.76C54.64,51,53.49,47.46,52.06,44a6,6,0,0,0-6.86-3.28,6.27,6.27,0,0,0-4.93,6,6.06,6.06,0,0,0,4.67,6.14C48.51,53.59,52.12,54.1,56,54.76Zm5.46,0c3.87-.66,7.48-1.18,11-1.92a6.08,6.08,0,0,0,4.68-6.13,6.28,6.28,0,0,0-5-6,6,6,0,0,0-6.8,3.4C64,47.53,62.81,51,61.46,54.77Z"/><path d="M99,24.11a5.49,5.49,0,1,1,5.49-5.44A5.53,5.53,0,0,1,99,24.11Zm0-7.31a1.82,1.82,0,1,0,1.8,1.85A1.84,1.84,0,0,0,99,16.79Z"/><path d="M13,80.89a5.49,5.49,0,1,1-5.52,5.4A5.52,5.52,0,0,1,13,80.89Zm-.08,7.31a1.82,1.82,0,1,0-1.78-1.87A1.85,1.85,0,0,0,12.89,88.21Z"/><path d="M66.07,15V7.71H69.7V15l0,0H66Z"/><path d="M14.79,18.63V11.37h3.63v7.26l0,0h-3.7Z"/><path d="M66.07,18.6H58.81V15h7.26l0,0v3.7Z"/><path d="M69.7,15H77V18.6H69.7l0,0v-3.7Z"/><path d="M14.78,22.26H7.52V18.63h7.26l0,0v3.7Z"/><path d="M18.41,18.63h7.26v3.63H18.42l0,0V18.6Z"/><path d="M69.7,18.6v7.26H66.07V18.6l0,0h3.7Z"/><path d="M18.42,22.26v7.26H14.78V22.26l0,0h3.7Z"/><path d="M97.21,40.61V33.35h3.63v7.26l0,0h-3.7Z"/><path d="M97.21,44.24H89.95V40.61h7.26l0,0v3.7Z"/><path d="M100.84,40.61h7.26v3.63h-7.26l0,0v-3.7Z"/><path d="M100.84,44.24V51.5H97.21q0-3.63,0-7.26l0,0h3.7Z"/><path d="M42.29,27.68V24.18h3.56v3.51Z"/><path d="M16.51,46H13V42.48h3.51Z"/><path d="M108.12,80.84H104.6V77.3h3.51Z"/><path class="cls-1" d="M32.22,106.45V71.79H51.31v34.66Z"/><path class="cls-1" d="M85.21,106.48H66.12V71.82H85.21Z"/><path class="cls-1" d="M62.31,106.48H55.12V59h7.19Z"/><path class="cls-1" d="M51.35,59v9H27.68V59Z"/><path class="cls-1" d="M89.81,59v9H66.15V59Z"/><path class="cls-1" d="M56,54.76c-3.88-.66-7.49-1.17-11.05-1.92a6.06,6.06,0,0,1-4.67-6.14,6.27,6.27,0,0,1,4.93-6A6,6,0,0,1,52.06,44C53.49,47.46,54.64,51,56,54.76Z"/><path class="cls-1" d="M61.46,54.77C62.81,51,64,47.53,65.35,44.12a6,6,0,0,1,6.8-3.4,6.28,6.28,0,0,1,5,6,6.08,6.08,0,0,1-4.68,6.13C68.94,53.6,65.33,54.11,61.46,54.77Z"/><path class="cls-1" d="M99,16.79a1.82,1.82,0,1,1-1.85,1.8A1.85,1.85,0,0,1,99,16.79Z"/><path class="cls-1" d="M12.89,88.21a1.82,1.82,0,1,1,1.87-1.78A1.85,1.85,0,0,1,12.89,88.21Z"/><path class="cls-1" d="M69.73,18.63H66v-3.7h3.7Z"/><path class="cls-1" d="M18.45,22.29h-3.7V18.6h3.7Z"/><path class="cls-1" d="M100.87,44.27h-3.7v-3.7h3.7Z"/></g></g></svg>