<svg xmlns="http://www.w3.org/2000/svg" viewBox="0 0 117.22 117.22"><defs><style>.cls-1{fill:#fff;}</style></defs><title>--shopping</title><g id="Capa_2" data-name="Capa 2"><g id="Capa_1-2" data-name="Capa 1"><rect class="cls-1" width="117.22" height="117.22"/><path class="cls-1" d="M60.46,5.41h50.76v105.2H6.22q0-52.6,0-105.2H57a3.46,3.46,0,0,1-.56.2,15.34,15.34,0,0,0-9.61,5.72,2.23,2.23,0,0,1-1.31.74c-3.11.42-6.22.76-9.34,1.12s-6.23.71-9.34,1.1c-1.39.17-2,.93-1.9,2.16.28,2.44.59,4.87.88,7.31.18,1.55.35,3.09.54,4.85-2.21-.6-2.92.92-3.74,2.33-1.39,2.38-2.85,4.73-4.26,7.1a2.84,2.84,0,0,0-.42,1.23q-.74,14.2-1.44,28.4-1,19.87-2,39.74c-.12,2.25.4,2.8,2.65,2.8h83.49c.27,0,.55,0,.82,0a1.79,1.79,0,0,0,1.81-1.82c0-.37,0-.75,0-1.12q-.88-16.86-1.76-33.71c-.58-11.41-1.13-22.82-1.71-34.23a2.6,2.6,0,0,0-.34-1.16c-1.7-2.87-3.44-5.72-5.16-8.58a2,2,0,0,0-1.94-1.06c-.87,0-1.75,0-2.72,0,.39-1.69.76-3.25,1.12-4.8S90.6,21.35,89,21c-4.84-1.15-9.67-2.3-14.52-3.39a1.3,1.3,0,0,1-1.1-1.1A15,15,0,0,0,67.18,8,17.84,17.84,0,0,0,60.46,5.41Z"/><path d="M60.46,5.41A17.84,17.84,0,0,1,67.18,8a15,15,0,0,1,6.17,8.51,1.3,1.3,0,0,0,1.1,1.1C79.3,18.67,84.14,19.82,89,21c1.63.38,2.07,1.12,1.7,2.75s-.72,3.11-1.12,4.8c1,0,1.85,0,2.72,0a2,2,0,0,1,1.94,1.06c1.72,2.86,3.46,5.71,5.16,8.58a2.6,2.6,0,0,1,.34,1.16c.58,11.41,1.13,22.82,1.71,34.23q.86,16.86,1.76,33.71c0,.37.05.75,0,1.12a1.79,1.79,0,0,1-1.81,1.82c-.27,0-.55,0-.82,0H17.1c-2.26,0-2.77-.55-2.65-2.8q1-19.87,2-39.74.72-14.2,1.44-28.4A2.84,2.84,0,0,1,18.34,38c1.4-2.38,2.86-4.72,4.26-7.1.83-1.41,1.53-2.93,3.74-2.33-.2-1.75-.36-3.3-.54-4.85-.29-2.44-.6-4.87-.88-7.31-.14-1.23.51-2,1.9-2.16,3.11-.39,6.23-.73,9.34-1.1s6.23-.71,9.34-1.12a2.23,2.23,0,0,0,1.31-.74,15.34,15.34,0,0,1,9.61-5.72,3.46,3.46,0,0,0,.56-.2Zm39.12,101.2L96.21,41.06H21.43l-3.36,65.56Zm-70.93-89L31,37.27h8.62c-.43-1.84-.85-3.59-1.26-5.34-.35-1.52.08-2.24,1.59-2.61L49,27.11l7.06-1.71L54.82,14.56Zm58.28,6.47L66.16,19.27l-.87,3.92,2.19-.53c1.81-.43,2.53,0,3,1.77s.85,3.57,1.28,5.36q.9,3.76,1.82,7.52h10.3ZM69.87,37.31,67.24,26.39l-25.15,6,1.17,4.87ZM59.59,24.43c1.7-.08,1.77-.13,2.09-1.54.43-1.86.85-3.71,1.29-5.57s1.12-2.18,2.88-1.77l3.78.86a11.56,11.56,0,0,0-7.91-7.06,10.79,10.79,0,0,0-9.56,1.85c1.23-.06,2.44-.19,3.66-.33,1.46-.17,2.21.41,2.38,1.84.29,2.5.57,5,.87,7.51C59.22,21.63,59.41,23,59.59,24.43Zm35,12.88c0-.14,0-.21,0-.26l-1.72-2.9c-1.32-2.21-1.32-2.21-3.86-2.1a1.24,1.24,0,0,0-.26.08l-1.21,5.17Zm-67.2,0c-.18-1.61-.34-3.13-.53-4.65,0-.21-.21-.56-.3-.56a.89.89,0,0,0-.65.32c-1,1.58-1.93,3.18-2.94,4.88Z"/><path class="cls-1" d="M99.58,106.62H18.06l3.36-65.56H96.21ZM70.35,59h0c0,1.06.05,2.12,0,3.17a11.51,11.51,0,0,1-23-.14c-.09-2,0-4.09-.07-6.14a1.41,1.41,0,0,1,.87-1.5,5.21,5.21,0,0,0,2.5-5.94,5.32,5.32,0,0,0-10.26-.09,5.16,5.16,0,0,0,2.41,6A1.63,1.63,0,0,1,43.73,56a54.81,54.81,0,0,0,.43,8.65c1.35,7.24,8.16,12.18,15.75,11.76a15,15,0,0,0,13.85-13.3c.23-2.47.13-5,.16-7.46a1.07,1.07,0,0,1,.61-1.12,5.21,5.21,0,0,0,2.77-6A5.31,5.31,0,0,0,67,48.5a5.21,5.21,0,0,0,2.72,6,1,1,0,0,1,.65,1.11C70.33,56.76,70.35,57.88,70.35,59Z"/><path class="cls-1" d="M28.65,17.66l26.18-3.1L56.1,25.41,49,27.11l-9.13,2.21c-1.51.37-1.94,1.09-1.59,2.61.41,1.75.83,3.51,1.26,5.34H31Z"/><path class="cls-1" d="M86.92,24.13,83.83,37.32H73.53q-.91-3.76-1.82-7.52c-.43-1.79-.85-3.57-1.28-5.36s-1.16-2.21-3-1.77l-2.19.53.87-3.92Z"/><path class="cls-1" d="M69.87,37.31H43.26l-1.17-4.87,25.15-6Z"/><path class="cls-1" d="M59.59,24.43c-.18-1.4-.36-2.8-.53-4.21-.3-2.5-.57-5-.87-7.51-.17-1.43-.92-2-2.38-1.84-1.21.14-2.43.27-3.66.33a10.79,10.79,0,0,1,9.56-1.85,11.56,11.56,0,0,1,7.91,7.06l-3.78-.86c-1.76-.41-2.46,0-2.88,1.77s-.86,3.71-1.29,5.57C61.35,24.31,61.29,24.36,59.59,24.43Z"/><path class="cls-1" d="M94.57,37.31H87.49l1.21-5.17a1.24,1.24,0,0,1,.26-.08c2.53-.11,2.53-.11,3.86,2.1L94.54,37S94.55,37.17,94.57,37.31Z"/><path class="cls-1" d="M27.37,37.29H22.94c1-1.7,2-3.3,2.94-4.88a.89.89,0,0,1,.65-.32c.1,0,.28.35.3.56C27,34.17,27.19,35.69,27.37,37.29Z"/><path d="M70.35,59c0-1.13,0-2.25,0-3.38a1,1,0,0,0-.65-1.11,5.21,5.21,0,0,1-2.72-6,5.31,5.31,0,0,1,10.31,0,5.21,5.21,0,0,1-2.77,6,1.07,1.07,0,0,0-.61,1.12c0,2.49.07,5-.16,7.46a15,15,0,0,1-13.85,13.3c-7.59.41-14.4-4.53-15.75-11.76A54.81,54.81,0,0,1,43.73,56a1.63,1.63,0,0,0-.94-1.66,5.16,5.16,0,0,1-2.41-6,5.32,5.32,0,0,1,10.26.09,5.21,5.21,0,0,1-2.5,5.94,1.41,1.41,0,0,0-.87,1.5c.06,2,0,4.09.07,6.14a11.51,11.51,0,0,0,23,.14c.06-1.05,0-2.11,0-3.17ZM47.08,50.56a1.67,1.67,0,0,0-.65-2.23,1.59,1.59,0,0,0-2.07.16,1.56,1.56,0,0,0-.4,2.08C45.25,49.56,45.69,49.56,47.08,50.56Zm23.45-.09c1.35-.91,1.86-.89,3.17.09a1.57,1.57,0,0,0-.44-2.09,1.6,1.6,0,0,0-2.06-.13A1.68,1.68,0,0,0,70.53,50.47Z"/><path class="cls-1" d="M47.08,50.56c-1.38-1-1.83-1-3.12,0a1.56,1.56,0,0,1,.4-2.08,1.59,1.59,0,0,1,2.07-.16A1.67,1.67,0,0,1,47.08,50.56Z"/><path class="cls-1" d="M70.53,50.47a1.68,1.68,0,0,1,.67-2.13,1.6,1.6,0,0,1,2.06.13,1.57,1.57,0,0,1,.44,2.09C72.39,49.58,71.88,49.56,70.53,50.47Z"/></g></g></svg>