<?xml version="1.0" encoding="utf-8"?>
<!-- Generator: Adobe Illustrator 21.1.0, SVG Export Plug-In . SVG Version: 6.00 Build 0)  -->
<svg version="1.1" id="Capa_1" xmlns="http://www.w3.org/2000/svg" xmlns:xlink="http://www.w3.org/1999/xlink" x="0px" y="0px"
	 viewBox="0 0 325.5 272.2" style="enable-background:new 0 0 325.5 272.2;" xml:space="preserve">
<style type="text/css">
	.st0{fill:#F9F9F9;}
	.st1{fill:#49A5E4;}
</style>
<g>
	<g>
		<path class="st0" d="M314.8,19.1c-1.5,5.1-4.1,9.7-6.7,13.8c-3.1,5.1-7.7,10.2-13.8,15.4c-8.2,7.2-16.9,14.3-25.6,21.5l-10.2,8.7
			c-5.6,4.1-8.2,10.2-7.2,17.4c1,7.2,2,14.3,3.1,22l12.3,89.6c0.5,5.1,0.5,8.7-0.5,11.8c-1.5,4.6-4.6,8.2-9.7,10.8
			c-1,0.5-2,1-3.6,1.5c-3.1,1-4.1,0.5-5.1-2c-1.5-3.1-2.6-6.7-4.1-10.2l-22.5-60.4c-2.6-6.7-6.1-12.8-9.7-18.9l-3.1-5.1l-4.6-6.7
			l-15.9,11.8c-14.3,10.8-28.7,22-42.5,32.8c-3.6,2.6-3.1,5.6-2.6,7.7c1,4.6,2.6,9.2,3.6,13.8l1,4.6c1,4.1,1,7.7-0.5,10.8
			c-1.5,3.1-3.6,5.1-7.2,6.1c0,0-1,0-2.6-1c-1-0.5-2-1.5-2.6-2.6c-11.8-14.8-23-29.2-34.3-44l-9.7-12.3c-1-1-1.5-2-2.6-3.6
			c-0.5-0.5-0.5-1-0.5-1s0.5-0.5,1-1c2-2,4.6-4.6,6.7-6.1c1.5-1.5,3.6-1.5,5.6-0.5c4.6,2,8.7,4.1,13.3,6.7l5.6,2.6
			c1,0.5,2,1,3.1,1.5c2.6,1.5,5.6,1,8.2-1c4.1-4.1,8.2-7.7,12.3-11.8l35.3-33.3l4.1-4.1l-2.6-3.6c-0.5-1-1-1.5-1.5-2.6
			c-1.5-2-2.6-4.1-4.1-5.6c-5.6-6.7-12.3-11.8-19.5-16.4c-17.4-11.8-35.3-24.1-52.7-36.4c-1.5-1-3.1-2-4.6-3.6s-1.5-2-0.5-3.1
			c2.6-4.6,6.7-8.7,11.3-12.3c1-1,2.6-1.5,6.1-0.5s6.7,2,9.2,3.1L219.6,59c2.6,1,5.1,1.5,7.2,2c5.6,1,11.3-0.5,15.9-4.6
			c2.6-2.6,5.1-4.6,7.7-7.2c4.1-3.6,8.2-7.2,12.3-10.8c8.7-7.2,15.9-13.3,22.5-18.4c6.1-4.6,13.3-7.7,21-8.7c2.6-0.5,4.6,0,6.7,1
			C314.8,12.9,315.8,16,314.8,19.1L314.8,19.1z M318.9,3.2c-4.1-2.6-8.7-3.6-14.3-3.1c-9.7,1.5-17.9,5.1-25.6,10.8
			c-6.7,5.1-14.3,11.3-23,18.4c-4.1,3.6-8.2,7.2-12.3,10.8c-2.6,2.6-5.1,4.6-7.7,7.2c-2.6,2-4.6,3.1-7.7,2.6c-1.5-0.5-3.6-1-5.6-1.5
			l-95.7-35.8c-3.1-1-6.1-2-9.7-3.1c-7.2-2-12.3,0-15.4,2.6c-5.6,4.1-10.2,9.2-13.3,14.8c-3.6,5.6-2.6,11.8,2.6,16.4
			c2,2,4.1,3.6,5.6,4.6C114.1,60,132,71.8,149.4,84.1c6.7,4.6,12.8,8.7,17.4,14.3c1,1.5,2,2.6,3.1,4.1l-33.3,31.7
			c-3.6,3.6-7.2,6.7-10.8,10.2c-0.5,0-1-0.5-1.5-0.5l-5.6-2.6c-4.6-2-8.7-4.6-13.3-6.7c-5.6-2.6-11.8-2-16.4,2
			c-2.6,2-5.1,4.6-7.7,7.2c-4.6,4.6-5.1,10.2-1,15.4c1,1.5,2,2.6,3.1,3.6l9.7,12.3c11.3,14.8,23,29.7,34.8,44c1.5,2,3.1,3.6,5.1,4.6
			c2,1,6.1,3.6,11.3,2c6.1-2,10.8-6.1,12.8-12.3c2-5.1,2.6-10.8,0.5-16.9l-1-4.6c-1-4.1-2-8.2-3.1-12.3c13.8-10.8,27.6-21,41-31.7
			l6.7-5.1l1.5,2.6c3.6,5.6,6.7,11.3,8.7,17.4l23.6,60.4c1.5,3.6,2.6,7.2,4.1,10.2c2.6,5.6,6.7,8.7,11.8,8.7c2,0,4.1-0.5,6.1-1.5
			c1.5-0.5,3.1-1,4.1-2c8.2-4.1,13.3-9.7,15.4-17.4c1.5-6.1,1-11.8,0.5-15.9l-12.3-89.6c-1-7.2-2-14.8-3.1-22
			c-0.5-3.6,0.5-5.6,3.1-7.7l10.8-9.2c8.7-7.2,16.9-14.3,25.6-21.5c7.2-6.1,11.8-11.8,15.9-17.9c3.1-4.6,6.1-10.2,7.7-16.4
			C327.1,14.5,324.5,7.3,318.9,3.2L318.9,3.2z"/>
	</g>
</g>
<g>
	<path class="st1" d="M89.5,196.7c-1.5-2-5.1-2.6-7.2-1L1.9,256.9c-2,1.5-2.6,5.1-1,7.2c1,1.5,2.6,2,4.1,2c1,0,2-0.5,3.1-1
		l80.5-61.2C91.1,202.4,91.1,199.3,89.5,196.7L89.5,196.7z"/>
	<path class="st1" d="M98.8,219.8L68,243.6c-2,1.5-2.6,5.1-1,7.2c1,1.5,2.6,2,4.1,2c1,0,2-0.5,3.1-1l31.3-23.8c2-1.5,2.6-5.1,1-7.2
		C104.4,218.8,101.3,218.2,98.8,219.8L98.8,219.8z"/>
	<path class="st1" d="M54.7,253.3L41.9,263c-2,1.5-2.6,5.1-1,7.2c1,1.5,2.6,2,4.1,2c1,0,2-0.5,3.1-1l12.8-9.7c2-1.5,2.6-5.1,1-7.2
		C60.3,252.3,56.7,251.7,54.7,253.3L54.7,253.3z"/>
	<path class="st1" d="M28,214.9c1,0,2-0.5,3.1-1l12.8-9.7c2-1.5,2.6-5.1,1-7.2s-5.1-2.6-7.2-1L25,205.7c-2,1.5-2.6,5.1-1,7.2
		C25,214.4,26.5,214.9,28,214.9L28,214.9z"/>
	<path class="st1" d="M54.1,195.4c1,0,2-0.5,3.1-1l14.4-10.5c2-1.5,2.6-5.1,1-7.2c-1.5-2-5.1-2.6-7.2-1l-14.4,10.5
		c-2,1.5-2.6,5.1-1,7.2C51.1,194.4,52.6,195.4,54.1,195.4L54.1,195.4z"/>
</g>
</svg>
