<?xml version="1.0" encoding="utf-8"?>
<!-- Generator: Adobe Illustrator 16.0.0, SVG Export Plug-In . SVG Version: 6.00 Build 0)  -->
<!DOCTYPE svg PUBLIC "-//W3C//DTD SVG 1.1//EN" "http://www.w3.org/Graphics/SVG/1.1/DTD/svg11.dtd">
<svg version="1.1" id="Layer_2" xmlns="http://www.w3.org/2000/svg" xmlns:xlink="http://www.w3.org/1999/xlink" x="0px" y="0px"
	 width="90.332px" height="90.186px" viewBox="0 0 90.332 90.186" enable-background="new 0 0 90.332 90.186" xml:space="preserve">
<circle opacity="0.1" fill="#10E370" cx="45.176" cy="45.454" r="44.131"/>
<circle opacity="0.2" fill="#10E370" cx="45.176" cy="45.454" r="35.743"/>
<circle fill="#10E370" cx="45.176" cy="45.454" r="27.743"/>
<g>
	<path fill="#FFFFFF" d="M45.361,27.795c-9.581,0-17.376,7.795-17.376,17.378c0,3.151,0.835,6.189,2.428,8.866l-2.802,9.075
		l9.589-2.597c2.504,1.333,5.3,2.033,8.16,2.033c9.582,0,17.377-7.796,17.377-17.376C62.739,35.59,54.943,27.795,45.361,27.795z
		 M45.361,59.712c-2.854,0-5.516-0.822-7.761-2.244l-0.205,0.056l-5.553,1.503l1.675-5.422c-1.697-2.378-2.696-5.29-2.696-8.433
		c0-8.031,6.51-14.541,14.54-14.541c8.031,0,14.541,6.51,14.541,14.541C59.902,53.202,53.392,59.712,45.361,59.712z"/>
	<path fill="#FFFFFF" d="M42.495,40.892c0,0,0.513,0.784,0,1.418c-0.514,0.634-0.936,1.116-0.936,1.116s-0.453,0.333,0,0.995
		c0.453,0.665,2.324,3.532,5.552,4.799c0,0,0.996,0.423,1.419-0.542l1.025-1.328c0,0,0.242-0.333,1.027,0
		c0.784,0.332,3.259,1.539,3.259,1.539s0.453,0.15,0.362,0.814c-0.09,0.665-0.332,3.229-3.893,3.501c0,0-3.44,0.121-7.303-2.867
		c-2.415-1.868-4.124-4.194-5.065-5.817c-0.063-0.108-0.123-0.212-0.178-0.314c-0.49-0.991-0.853-2.077-0.804-3.137
		c0-0.121,0.004-0.247,0.013-0.377c0.078-1.158,0.55-2.54,2.293-3.332c0,0,1.418-0.21,1.659,0L42.495,40.892z"/>
</g>
</svg>
