<?xml version="1.0" encoding="utf-8"?>
<!-- Generator: Adobe Illustrator 21.1.0, SVG Export Plug-In . SVG Version: 6.00 Build 0)  -->
<svg version="1.1" id="Capa_1" xmlns="http://www.w3.org/2000/svg" xmlns:xlink="http://www.w3.org/1999/xlink" x="0px" y="0px"
	 viewBox="0 0 479.9 512" style="enable-background:new 0 0 479.9 512;" xml:space="preserve">
<style type="text/css">
	.st0{fill:#F9F9F9;}
	.st1{fill:#49A5E4;}
</style>
<g>
	<g>
		<path class="st0" d="M247.5,492.6V236.7l51.9-25c3.7-1.8,5.3-6.3,3.5-10c-1.8-3.7-6.3-5.3-10-3.5L240,223.6l-20.8-10
			c-3.7-1.8-8.2-0.2-10,3.5s-0.2,8.2,3.5,10l19.8,9.6v255.9L15,387.6V131.7l165.6,79.9c1.1,0.5,2.2,0.7,3.3,0.7
			c2.8,0,5.5-1.6,6.8-4.2c1.8-3.7,0.2-8.2-3.5-10L24.8,119.7l74.5-36l225.3,108.8c0,0,0.1,0.1,0.1,0.1v90c0,2.6,1.3,5,3.5,6.4
			c1.2,0.8,2.6,1.1,4,1.1c1.1,0,2.2-0.2,3.3-0.7l56.1-27.1c2.6-1.3,4.2-3.9,4.2-6.8v-90.5l69.2-33.4v255.9L247.5,492.6L247.5,492.6z
			 M339.7,192.2l41.1-19.8v78.5l-41.1,19.8V192.2L339.7,192.2z M160.8,54.3l214.9,103.7l-44,21.2L116.9,75.6L160.8,54.3L160.8,54.3z
			 M240,15.8l215.2,103.9l-62.4,30.1c-0.4-0.3-0.8-0.6-1.3-0.8L177.8,45.9L240,15.8L240,15.8z M475.7,113L243.2,0.7
			c-2.1-1-4.5-1-6.5,0L4.2,113c-2.6,1.3-4.2,3.9-4.2,6.8v272.5c0,2.9,1.6,5.5,4.2,6.8l232.5,112.2c1,0.5,2.1,0.7,3.3,0.7
			s2.2-0.2,3.3-0.7L475.7,399c2.6-1.3,4.2-3.9,4.2-6.8V119.7C479.9,116.8,478.3,114.2,475.7,113L475.7,113z"/>
	</g>
	<path class="st1" d="M76.9,358.5L42.8,342c-3.7-1.8-8.2-0.2-10,3.5c-1.8,3.7-0.2,8.2,3.5,10L70.4,372c1.1,0.5,2.2,0.7,3.3,0.7
		c2.8,0,5.5-1.6,6.8-4.2C82.2,364.8,80.6,360.3,76.9,358.5L76.9,358.5z"/>
	<path class="st1" d="M108.3,338l-65.5-31.6c-3.7-1.8-8.2-0.2-10,3.5c-1.8,3.7-0.2,8.2,3.5,10l65.5,31.6c1.1,0.5,2.2,0.7,3.3,0.7
		c2.8,0,5.5-1.6,6.8-4.2C113.6,344.3,112,339.8,108.3,338L108.3,338z"/>
</g>
</svg>
