<?xml version="1.0" encoding="utf-8"?>
<!-- Generator: Adobe Illustrator 21.1.0, SVG Export Plug-In . SVG Version: 6.00 Build 0)  -->
<svg version="1.1" id="Layer_1" xmlns="http://www.w3.org/2000/svg" xmlns:xlink="http://www.w3.org/1999/xlink" x="0px" y="0px"
	 viewBox="0 0 203.8 49.8" style="enable-background:new 0 0 203.8 49.8;" xml:space="preserve">
<style type="text/css">
	.st0{opacity:0;fill:#EE335B;}
	.st1{fill:#5F6368;}
	.st2{fill:#63666A;}
	.st3{fill:#34A853;}
	.st4{fill:#FBBC04;}
	.st5{fill:#4285F4;}
	.st6{fill:#1A73E8;}
	.st7{fill:#EA4335;}
</style>
<rect class="st0" width="203.8" height="49.8"/>
<g>
	<path class="st1" d="M119.5,28.4l6.7-2.8c-0.4-0.9-1.5-1.6-2.8-1.6C121.7,24,119.4,25.5,119.5,28.4 M127.3,31.1l2.5,1.7
		c-0.8,1.2-2.8,3.3-6.2,3.3c-4.2,0-7.3-3.3-7.3-7.5c0-4.4,3.1-7.5,6.9-7.5c3.9,0,5.8,3.1,6.4,4.7l0.3,0.8l-10,4.1
		c0.8,1.5,1.9,2.3,3.6,2.3C125.3,33.1,126.5,32.3,127.3,31.1 M111.2,35.6h3.3V13.7h-3.3V35.6z M105.8,28.7c0-2.6-1.8-4.5-4-4.5
		c-2.3,0-4.2,1.9-4.2,4.5c0,2.6,1.9,4.5,4.2,4.5C104.1,33.1,105.8,31.3,105.8,28.7z M108.7,21.6V35c0,5.5-3.2,7.8-7.1,7.8
		c-3.6,0-5.8-2.4-6.6-4.4l2.9-1.2c0.5,1.2,1.8,2.7,3.8,2.7c2.5,0,4-1.5,4-4.4v-1.1h-0.1c-0.7,0.9-2.1,1.7-3.9,1.7
		c-3.7,0-7.1-3.3-7.1-7.4c0-4.2,3.4-7.5,7.1-7.5c1.8,0,3.2,0.8,3.9,1.7h0.1v-1.2C105.6,21.6,108.7,21.6,108.7,21.6z M72.9,28.6
		c0-2.7-1.9-4.5-4.1-4.5s-4.1,1.8-4.1,4.5c0,2.7,1.9,4.5,4.1,4.5C71,33.1,72.9,31.3,72.9,28.6 M76.2,28.6c0,4.3-3.3,7.5-7.4,7.5
		c-4,0-7.4-3.2-7.4-7.5c0-4.3,3.3-7.5,7.4-7.5C72.9,21.2,76.2,24.3,76.2,28.6 M89.4,28.6c0-2.7-1.9-4.5-4.1-4.5s-4.1,1.8-4.1,4.5
		c0,2.7,1.9,4.5,4.1,4.5C87.5,33.1,89.4,31.3,89.4,28.6 M92.6,28.6c0,4.3-3.3,7.5-7.4,7.5c-4,0-7.4-3.2-7.4-7.5
		c0-4.3,3.3-7.5,7.4-7.5C89.3,21.2,92.6,24.3,92.6,28.6 M48.9,36.1c-6.4,0-11.8-5.2-11.8-11.6s5.4-11.6,11.8-11.6
		c3.5,0,6,1.4,7.9,3.2l-2.2,2.2c-1.4-1.3-3.2-2.3-5.7-2.3c-4.7,0-8.3,3.8-8.3,8.4s3.6,8.4,8.3,8.4c3,0,4.7-1.2,5.8-2.3
		c0.9-0.9,1.5-2.2,1.7-4h-7.6v-3.2h10.6c0.1,0.6,0.2,1.2,0.2,2c0,2.4-0.7,5.3-2.7,7.4C54.9,35,52.3,36.1,48.9,36.1"/>
	<g id="flowRoot2998" transform="matrix(4.2191115,0,0,4.2191115,-384.028,-1510.8399)">
		<path id="path3911" class="st2" d="M123.7,366.5v-4.6h0.6l1.6,2.8h0l1.6-2.8h0.6v4.6h-0.6v-2.7l0-0.8h0l-1.4,2.5h-0.3l-1.4-2.5h0
			l0,0.8v2.7H123.7z"/>
		<path id="path3913" class="st2" d="M129.9,366.6c-0.3,0-0.6-0.1-0.8-0.3c-0.2-0.2-0.3-0.4-0.3-0.8c0-0.3,0.1-0.6,0.4-0.8
			s0.6-0.3,1-0.3c0.3,0,0.6,0.1,0.9,0.2v-0.1c0-0.2-0.1-0.4-0.2-0.6c-0.2-0.1-0.4-0.2-0.6-0.2c-0.2,0-0.3,0-0.5,0.1
			s-0.2,0.2-0.3,0.3l-0.5-0.2c0.1-0.2,0.2-0.4,0.4-0.5s0.5-0.2,0.9-0.2c0.4,0,0.7,0.1,1,0.4c0.3,0.2,0.4,0.6,0.4,1v1.9H131v-0.4h0
			C130.7,366.4,130.4,366.6,129.9,366.6z M130,366.1c0.2,0,0.5-0.1,0.7-0.3c0.2-0.2,0.3-0.4,0.3-0.6c-0.2-0.1-0.4-0.2-0.8-0.2
			c-0.3,0-0.5,0.1-0.7,0.2s-0.2,0.3-0.2,0.4c0,0.2,0.1,0.3,0.2,0.4C129.7,366,129.8,366.1,130,366.1z"/>
		<path id="path3915" class="st2" d="M133.9,366.6c-0.2,0-0.5-0.1-0.6-0.2c-0.2-0.1-0.3-0.2-0.4-0.4h0l0,0.4v1.4h-0.6v-4.5h0.6v0.4
			h0c0.1-0.2,0.2-0.3,0.4-0.4s0.4-0.2,0.6-0.2c0.4,0,0.8,0.2,1.1,0.5c0.3,0.3,0.4,0.7,0.4,1.2c0,0.5-0.1,0.9-0.4,1.2
			C134.6,366.4,134.3,366.6,133.9,366.6z M133.8,366.1c0.3,0,0.5-0.1,0.7-0.3c0.2-0.2,0.3-0.5,0.3-0.8c0-0.3-0.1-0.6-0.3-0.8
			c-0.2-0.2-0.4-0.3-0.7-0.3c-0.3,0-0.5,0.1-0.7,0.3c-0.2,0.2-0.3,0.5-0.3,0.8s0.1,0.6,0.3,0.8C133.2,365.9,133.5,366.1,133.8,366.1
			z"/>
		<path id="path3917" class="st2" d="M137.1,366.6c-0.4,0-0.6-0.1-0.9-0.3c-0.2-0.2-0.4-0.4-0.5-0.6l0.5-0.2
			c0.2,0.4,0.5,0.6,0.9,0.6c0.2,0,0.3,0,0.5-0.1s0.2-0.2,0.2-0.3c0-0.2-0.1-0.3-0.4-0.4l-0.6-0.2c-0.2-0.1-0.4-0.1-0.6-0.3
			c-0.2-0.1-0.3-0.3-0.3-0.6c0-0.3,0.1-0.5,0.4-0.7c0.2-0.2,0.5-0.3,0.9-0.3c0.3,0,0.5,0.1,0.7,0.2c0.2,0.1,0.4,0.3,0.5,0.5
			l-0.5,0.2c-0.1-0.3-0.4-0.4-0.7-0.4c-0.2,0-0.3,0-0.4,0.1c-0.1,0.1-0.2,0.2-0.2,0.3c0,0.2,0.1,0.3,0.4,0.4l0.6,0.1
			c0.3,0.1,0.5,0.2,0.7,0.4s0.2,0.4,0.2,0.6c0,0.3-0.1,0.5-0.3,0.7C137.7,366.5,137.4,366.6,137.1,366.6z"/>
	</g>
	<g id="g842" transform="translate(-583.2646,52.894413)">
		<path id="path835" class="st3" d="M593.8-19.4c1.1,1.4,2.2,3.1,2.8,4.2c0.7,1.4,1,2.3,1.6,3.9c0.3,0.9,0.6,1.2,1.2,1.2
			c0.7,0,1-0.5,1.2-1.2c0.5-1.6,0.9-2.7,1.5-3.9c1.2-2.2,2.7-4.1,4.2-5.9c0.4-0.5,3-3.6,4.2-6c0,0,1.4-2.6,1.4-6.3
			c0-3.5-1.4-5.9-1.4-5.9l-4.1,1.1l-2.5,6.5l-0.6,0.9l-0.1,0.2l-0.2,0.2l-0.3,0.3l-0.4,0.4l-2.2,1.8l-5.5,3.2L593.8-19.4z"/>
		<path id="path833" class="st4" d="M588.2-27.5c1.3,3.1,3.9,5.8,5.7,8.1l9.3-11c0,0-1.3,1.7-3.7,1.7c-2.6,0-4.8-2.1-4.8-4.8
			c0-1.8,1.1-3.1,1.1-3.1l-6.3,1.7L588.2-27.5z"/>
		<path id="path831" class="st5" d="M603.3-45.4c3.1,1,5.7,3.1,7.3,6.2l-7.4,8.9c0,0,1.1-1.3,1.1-3.1c0-2.7-2.3-4.8-4.8-4.8
			c-2.4,0-3.7,1.7-3.7,1.7v-5.6L603.3-45.4z"/>
		<path id="path829" class="st6" d="M589.9-41.5c1.8-2.2,5.1-4.5,9.6-4.5c2.2,0,3.8,0.6,3.8,0.6l-7.5,8.9h-5.3L589.9-41.5z"/>
		<path id="path827" class="st7" d="M588.2-27.5c0,0-1.2-2.4-1.2-5.9c0-3.3,1.3-6.2,2.9-8.1l5.9,5L588.2-27.5z"/>
	</g>
</g>
</svg>
