<?xml version="1.0" encoding="utf-8"?>
<!-- Generator: Adobe Illustrator 21.1.0, SVG Export Plug-In . SVG Version: 6.00 Build 0)  -->
<svg version="1.1" id="Capa_1" xmlns="http://www.w3.org/2000/svg" xmlns:xlink="http://www.w3.org/1999/xlink" x="0px" y="0px"
	 viewBox="0 0 493.5 512" style="enable-background:new 0 0 493.5 512;" xml:space="preserve">
<style type="text/css">
	.st0{fill:#F9F9F9;}
	.st1{fill:#49A5E4;}
	.st2{fill:#333333;}
</style>
<g>
	<path class="st0" d="M477.4,225.4l-9.1-2.3v-1.6c0-41.5-11.6-82.1-33.6-117.2c-2.2-3.5-6.8-4.6-10.3-2.4c-3.5,2.2-4.6,6.8-2.4,10.3
		c20.1,32.1,30.9,69.1,31.3,107l-10.5-2.6c-2.1-14.4-14-25.6-28.7-26.4c-7-37.5-26.6-71.8-55.6-97.1c-6.7-5.8-13.7-11-21.1-15.7
		l17.6-31.8c17.3,10.7,33.1,23.9,46.8,39.5c2.7,3.1,7.5,3.4,10.6,0.7c3.1-2.7,3.4-7.5,0.7-10.6c-16.4-18.6-35.5-34-56.5-46.1
		c-0.3-0.2-0.5-0.4-0.8-0.5c-0.2-0.1-0.5-0.2-0.7-0.3C322.2,10,285,0,246.7,0C207.2,0,170,10.4,137.8,28.7c0,0,0,0,0,0c0,0,0,0,0,0
		C70.6,66.8,25.2,139,25.2,221.5v1.6l-9.1,2.3C6.6,227.7,0,236.2,0,246v99.6c0,9.8,6.6,18.3,16.1,20.6l9.1,2.3V403
		c0,43.2,35.1,78.3,78.3,78.3h38C143,498.5,157.4,512,175,512h54.2c18.5,0,33.6-15.1,33.6-33.6v-9.2c0-9-3.5-17.4-9.8-23.7
		c-2.9-2.9-7.7-2.9-10.6,0c-2.9,2.9-2.9,7.7,0,10.6c3.5,3.5,5.4,8.2,5.4,13.1v9.2c0,10.2-8.3,18.6-18.6,18.6H175
		c-10.2,0-18.6-8.3-18.6-18.6v-9.2c0-10.2,8.3-18.6,18.6-18.6h40.5c4.1,0,7.5-3.4,7.5-7.5c0-4.1-3.4-7.5-7.5-7.5H175
		c-17.5,0-32,13.5-33.4,30.7h-38c-34.9,0-63.3-28.4-63.3-63.3v-30.8l10.5,2.6c2.1,15,15,26.5,30.6,26.5h31.2
		c17,0,30.9-13.9,30.9-30.9V221.1c0-17-13.9-30.9-30.9-30.9H94.8c6.8-33.1,24.4-63.2,50.2-85.7c28.2-24.6,64.4-38.2,101.8-38.2
		c37.4,0,73.6,13.6,101.8,38.2c25.8,22.4,43.4,52.6,50.2,85.7h-17.8c-17,0-30.9,13.9-30.9,30.9v149.3c0,17,13.9,30.9,30.9,30.9h31.2
		c15.6,0,28.4-11.5,30.6-26.5l34.6-8.6c9.5-2.4,16.1-10.8,16.1-20.6V246C493.5,236.2,486.9,227.7,477.4,225.4L477.4,225.4z
		 M50.4,359.3l-30.7-7.6c-2.8-0.7-4.7-3.2-4.7-6.1V246c0-2.9,1.9-5.4,4.7-6.1l30.7-7.6L50.4,359.3L50.4,359.3z M112.5,205.2
		c8.8,0,15.9,7.1,15.9,15.9v149.3c0,8.8-7.1,15.9-15.9,15.9H81.3c-8.8,0-15.9-7.1-15.9-15.9V221.1c0-8.8,7.1-15.9,15.9-15.9
		L112.5,205.2L112.5,205.2z M135.1,93.2c-29,25.3-48.6,59.6-55.6,97.1c-14.7,0.9-26.7,12.1-28.7,26.4l-10.5,2.6
		C41,146,80.2,81.7,138.6,45.7l17.6,31.9C148.8,82.2,141.7,87.4,135.1,93.2L135.1,93.2z M246.7,51.4c-27.2,0-53.7,6.5-77.5,18.7
		l-17.6-31.9C180.1,23.4,212.5,15,246.7,15c33.4,0,66,8.2,95.1,23.3l-17.6,31.8C300.4,57.9,273.9,51.4,246.7,51.4L246.7,51.4z
		 M428.1,370.4c0,8.8-7.1,15.9-15.9,15.9h-31.2c-8.8,0-15.9-7.1-15.9-15.9V221.1c0-8.8,7.1-15.9,15.9-15.9h31.2
		c8.8,0,15.9,7.1,15.9,15.9V370.4z M478.5,345.6c0,2.9-1.9,5.4-4.7,6.1l-30.7,7.6v-127l30.7,7.6c2.8,0.7,4.7,3.2,4.7,6.1V345.6z"/>
</g>
<g>
	<path class="st1" d="M25.2,368.5V403c0,43.2,35.1,78.3,78.3,78.3h38C143,498.5,157.4,512,175,512h54.2c18.5,0,33.6-15.1,33.6-33.6
		v-9.2c0-9-3.5-17.4-9.8-23.7c-2.9-2.9-7.7-2.9-10.6,0c-2.9,2.9-2.9,7.7,0,10.6c3.5,3.5,5.4,8.2,5.4,13.1v9.2
		c0,10.2-8.3,18.6-18.6,18.6H175c-10.2,0-18.6-8.3-18.6-18.6v-9.2c0-10.2,8.3-18.6,18.6-18.6h40.5c4.1,0,7.5-3.4,7.5-7.5
		c0-4.1-3.4-7.5-7.5-7.5H175c-17.5,0-32,13.5-33.4,30.7h-38c-34.9,0-63.3-28.4-63.3-63.3v-30.8"/>
</g>
<g>
	<path class="st2" d="M-970.8,225.4l-9.1-2.3v-1.6c0-41.5-11.6-82.1-33.6-117.2c-2.2-3.5-6.8-4.6-10.3-2.4
		c-3.5,2.2-4.6,6.8-2.4,10.3c20.1,32.1,30.9,69.1,31.3,107l-10.5-2.6c-2.1-14.4-14-25.6-28.7-26.4c-7-37.5-26.6-71.8-55.6-97.1
		c-6.7-5.8-13.7-11-21.1-15.7l17.6-31.8c17.3,10.7,33.1,23.9,46.8,39.5c2.7,3.1,7.5,3.4,10.6,0.7c3.1-2.7,3.4-7.5,0.7-10.6
		c-16.4-18.6-35.5-34-56.5-46.1c-0.3-0.2-0.5-0.4-0.8-0.5c-0.2-0.1-0.5-0.2-0.7-0.3C-1126,10-1163.2,0-1201.5,0
		c-39.6,0-76.8,10.4-108.9,28.7c0,0,0,0,0,0c0,0,0,0,0,0C-1377.6,66.8-1423,139-1423,221.5v1.6l-9.1,2.3
		c-9.5,2.4-16.1,10.8-16.1,20.6v99.6c0,9.8,6.6,18.3,16.1,20.6l9.1,2.3V403c0,43.2,35.1,78.3,78.3,78.3h38
		c1.5,17.2,15.9,30.7,33.4,30.7h54.2c18.5,0,33.6-15.1,33.6-33.6v-9.2c0-9-3.5-17.4-9.8-23.7c-2.9-2.9-7.7-2.9-10.6,0
		c-2.9,2.9-2.9,7.7,0,10.6c3.5,3.5,5.4,8.2,5.4,13.1v9.2c0,10.2-8.3,18.6-18.6,18.6h-54.2c-10.2,0-18.6-8.3-18.6-18.6v-9.2
		c0-10.2,8.3-18.6,18.6-18.6h40.5c4.1,0,7.5-3.4,7.5-7.5c0-4.1-3.4-7.5-7.5-7.5h-40.5c-17.5,0-32,13.5-33.4,30.7h-38
		c-34.9,0-63.3-28.4-63.3-63.3v-30.8l10.5,2.6c2.1,15,15,26.5,30.6,26.5h31.2c17,0,30.9-13.9,30.9-30.9V221.1
		c0-17-13.9-30.9-30.9-30.9h-17.8c6.8-33.1,24.4-63.2,50.2-85.7c28.2-24.6,64.4-38.2,101.8-38.2c37.4,0,73.6,13.6,101.8,38.2
		c25.8,22.4,43.4,52.6,50.2,85.7h-17.8c-17,0-30.9,13.9-30.9,30.9v149.3c0,17,13.9,30.9,30.9,30.9h31.2c15.6,0,28.4-11.5,30.6-26.5
		l34.6-8.6c9.5-2.4,16.1-10.8,16.1-20.6V246C-954.7,236.2-961.4,227.7-970.8,225.4L-970.8,225.4z M-1397.8,359.3l-30.7-7.6
		c-2.8-0.7-4.7-3.2-4.7-6.1V246c0-2.9,1.9-5.4,4.7-6.1l30.7-7.6V359.3z M-1335.7,205.2c8.8,0,15.9,7.1,15.9,15.9v149.3
		c0,8.8-7.1,15.9-15.9,15.9h-31.2c-8.8,0-15.9-7.1-15.9-15.9V221.1c0-8.8,7.1-15.9,15.9-15.9L-1335.7,205.2L-1335.7,205.2z
		 M-1313.1,93.2c-29,25.3-48.6,59.6-55.6,97.1c-14.7,0.9-26.7,12.1-28.7,26.4l-10.5,2.6c0.8-73.3,39.9-137.6,98.3-173.7l17.6,31.9
		C-1299.4,82.2-1306.5,87.4-1313.1,93.2L-1313.1,93.2z M-1201.5,51.4c-27.2,0-53.7,6.5-77.5,18.7l-17.6-31.9
		c28.5-14.9,60.8-23.3,95.1-23.3c33.4,0,66,8.2,95.1,23.3l-17.6,31.8C-1147.8,57.9-1174.3,51.4-1201.5,51.4L-1201.5,51.4z
		 M-1020.2,370.4c0,8.8-7.1,15.9-15.9,15.9h-31.2c-8.8,0-15.9-7.1-15.9-15.9V221.1c0-8.8,7.1-15.9,15.9-15.9h31.2
		c8.8,0,15.9,7.1,15.9,15.9V370.4z M-969.7,345.6c0,2.9-1.9,5.4-4.7,6.1l-30.7,7.6v-127l30.7,7.6c2.8,0.7,4.7,3.2,4.7,6.1V345.6z"/>
</g>
</svg>
