<svg xmlns="http://www.w3.org/2000/svg" viewBox="0 0 563.2 146.95"><defs><style>.cls-1{fill:#1a1a19;}.cls-2{fill:#49a5e4;}</style></defs><title>logo-locallity</title><g id="Capa_2" data-name="Capa 2"><g id="Capa_1-2" data-name="Capa 1"><rect class="cls-1" y="0.69" width="19.56" height="112.97"/><path class="cls-1" d="M116,73.9c0,22.95-15.67,41.54-41.53,41.54S33.13,96.85,33.13,73.9c0-22.79,15.84-41.53,41.21-41.53S116,51.11,116,73.9m-63.19,0c0,12.12,7.27,23.43,21.66,23.43S96.16,86,96.16,73.9c0-12-8.4-23.6-21.66-23.6-14.22,0-21.66,11.64-21.66,23.6"/><path class="cls-1" d="M198,103.47c-9.21,9.05-18.91,12.61-30.71,12.61-23.11,0-42.34-13.9-42.34-42.18s19.23-42.18,42.34-42.18c11.31,0,20,3.23,28.77,11.8L183.59,56.61a24.2,24.2,0,0,0-16-6.3c-13.25,0-22.95,9.7-22.95,23.6,0,15.19,10.34,23.27,22.63,23.27,6.3,0,12.6-1.78,17.45-6.63Z"/><path class="cls-1" d="M269.89,34h18.91v79.68H270.21l-1-11.64c-4.52,9.37-17,13.9-25.86,14.06-23.6.16-41-14.38-41-42.34,0-27.47,18.26-41.86,41.53-41.7,10.67,0,20.85,5,25.37,12.93ZM222,73.74C222,88.93,232.55,98,245.64,98c31,0,31-48.32,0-48.32-13.09,0-23.6,8.89-23.6,24.08"/><rect class="cls-1" x="305.43" y="0.69" width="19.56" height="112.97"/><rect class="cls-2" x="342.28" y="0.69" width="19.56" height="112.97"/><path class="cls-2" d="M400.62,11.51c0,15.35-23.27,15.35-23.27,0s23.27-15.35,23.27,0M379.13,113.65h19.72v-80H379.13Z"/><path class="cls-2" d="M444.42,11.51V34.14h22v17H444.26V85.53c0,7.6,4.2,11.31,10.34,11.31a22.51,22.51,0,0,0,9.54-2.43l5.5,16.81a44,44,0,0,1-16.32,3.39c-17.29.65-28.61-9.21-28.61-29.09V51.11H409.83v-17H424.7V13.62Z"/><polygon class="cls-2" points="563.2 33.98 514.55 146.95 492.9 146.95 507.76 112.36 475.93 33.98 498.88 33.98 511 68.4 518.59 90.87 526.84 68.89 541.38 33.98 563.2 33.98"/></g></g></svg>