<svg xmlns="http://www.w3.org/2000/svg" viewBox="0 0 1279 297.21"><defs><style>.cls-1{fill:#455a64;}</style></defs><title>whatsapp-large</title><g id="Capa_2" data-name="Capa 2"><g id="Layer_1" data-name="Layer 1"><g id="_Grupo_" data-name="&lt;Grupo&gt;"><path class="cls-1" d="M148.51,0C67.34,0,1.27,66.06,1.23,147.26a147,147,0,0,0,19.66,73.63L0,297.21l78.07-20.48a147.16,147.16,0,0,0,70.38,17.92h.06c81.17,0,147.24-66.07,147.27-147.27A147.3,147.3,0,0,0,148.51,0Zm0,269.78h-.05a122.21,122.21,0,0,1-62.3-17.06l-4.47-2.65L35.36,262.22l12.37-45.17-2.91-4.63a122.43,122.43,0,1,1,226.1-65C270.89,214.87,216,269.78,148.51,269.78Zm67.14-91.68c-3.68-1.84-21.77-10.74-25.15-12s-5.83-1.84-8.28,1.84-9.51,12-11.65,14.43-4.29,2.77-8,.92S147.07,177.6,133,165.06c-10.94-9.76-18.32-21.81-20.47-25.49s-.23-5.67,1.61-7.51c1.65-1.65,3.68-4.3,5.52-6.45a25.16,25.16,0,0,0,3.68-6.14A6.78,6.78,0,0,0,123,113c-.92-1.84-8.28-20-11.35-27.32-3-7.17-6-6.21-8.28-6.32s-4.6-.13-7.05-.13a13.53,13.53,0,0,0-9.81,4.61c-3.37,3.68-12.88,12.59-12.88,30.7s13.19,35.61,15,38.07,25.95,39.62,62.86,55.56a211.88,211.88,0,0,0,21,7.75,50.48,50.48,0,0,0,23.18,1.46c7.07-1.06,21.77-8.9,24.84-17.5s3.07-16,2.15-17.5S219.34,179.95,215.66,178.1Zm260.54-2.25h-.39L451.38,77.35H422l-24.82,97.3h-.4l-22.62-97.3H342.7L380.53,220.3h31.83L436.17,123h.4l24.22,97.3H492L530.44,77.35H499.62ZM626.31,125.7a27.79,27.79,0,0,0-11.5-8.61Q607.49,114,596.09,114a37.25,37.25,0,0,0-16.42,4.11,32.85,32.85,0,0,0-13.81,13.11h-.6V77.35H536.84V220.3h28.42V166q0-15.81,5.21-22.73t16.81-6.9q10.2,0,14.21,6.31t4,19.11V220.3h28.42V156.64a83.91,83.91,0,0,0-1.7-17.52A33.41,33.41,0,0,0,626.31,125.7ZM743.4,197.28V143.42q0-9.42-4.21-15.12a28.73,28.73,0,0,0-10.8-8.91,48.44,48.44,0,0,0-14.62-4.3A116,116,0,0,0,698,114a86.74,86.74,0,0,0-17.11,1.7,48.87,48.87,0,0,0-15.32,5.7A33.93,33.93,0,0,0,654.34,132q-4.42,6.61-5,16.62h28.42q.8-8.41,5.61-12t13.21-3.6a47.86,47.86,0,0,1,7.1.5,15.74,15.74,0,0,1,5.81,2,11,11,0,0,1,4,4.21A15.1,15.1,0,0,1,715,147c.13,2.94-.74,5.17-2.6,6.7a19,19,0,0,1-7.61,3.5,73.26,73.26,0,0,1-11,1.8q-6.21.61-12.6,1.61a119.56,119.56,0,0,0-12.71,2.7,35.93,35.93,0,0,0-11.22,5.1,26.1,26.1,0,0,0-8,9.12q-3.1,5.71-3.1,14.51a32.45,32.45,0,0,0,2.7,13.81,26,26,0,0,0,7.51,9.61,31.69,31.69,0,0,0,11.21,5.61,50.92,50.92,0,0,0,13.81,1.8,64.42,64.42,0,0,0,18.81-2.8,37.11,37.11,0,0,0,16-9.82,43.07,43.07,0,0,0,.7,5.11,40.73,40.73,0,0,0,1.3,4.9H747c-1.33-2.12-2.27-5.33-2.8-9.61A106.82,106.82,0,0,1,743.4,197.28Zm-28.42-17a52.91,52.91,0,0,1-.5,6.41,21.37,21.37,0,0,1-2.7,7.91,18.77,18.77,0,0,1-6.81,6.71q-4.6,2.81-13,2.81a35,35,0,0,1-6.6-.61,16,16,0,0,1-5.6-2.1,10.77,10.77,0,0,1-3.81-4.11,13.41,13.41,0,0,1-1.4-6.4,13.91,13.91,0,0,1,1.4-6.61,13,13,0,0,1,3.71-4.31,18.69,18.69,0,0,1,5.4-2.71,51.48,51.48,0,0,1,6.31-1.6c2.26-.39,4.54-.74,6.8-1s4.44-.6,6.51-1a46,46,0,0,0,5.81-1.51,12.66,12.66,0,0,0,4.5-2.5Zm81.46-94.49H768v31H750.81v19H768v61.07q0,7.82,2.61,12.61a18.6,18.6,0,0,0,7.1,7.41,29.52,29.52,0,0,0,10.41,3.5,83.34,83.34,0,0,0,12.51.9c2.81,0,5.67-.07,8.61-.19a66.13,66.13,0,0,0,8-.81v-22a36,36,0,0,1-4.21.6c-1.46.14-3,.21-4.6.21q-7.2,0-9.61-2.41t-2.39-9.61V135.81h20.82v-19H796.44ZM913.92,175a25.74,25.74,0,0,0-7.4-8.21A40.36,40.36,0,0,0,896,161.43,123.65,123.65,0,0,0,883.89,158q-6-1.41-11.8-2.61a93.86,93.86,0,0,1-10.32-2.7,21.45,21.45,0,0,1-7.3-3.91,7.76,7.76,0,0,1-2.8-6.2,7.64,7.64,0,0,1,1.59-5.11,10.7,10.7,0,0,1,3.91-2.91,17.71,17.71,0,0,1,5.1-1.3,49.88,49.88,0,0,1,5.2-.29,28.42,28.42,0,0,1,13.22,2.9c3.72,1.93,5.8,5.64,6.19,11.11h27q-.8-9.6-4.9-15.92A32.38,32.38,0,0,0,898.71,121a43.07,43.07,0,0,0-14.11-5.41,81.73,81.73,0,0,0-16.3-1.6,89.59,89.59,0,0,0-16.41,1.49,45.3,45.3,0,0,0-14.42,5.21,28.74,28.74,0,0,0-10.31,10.11q-3.91,6.41-3.91,16.42a22.11,22.11,0,0,0,2.81,11.52,24.2,24.2,0,0,0,7.39,7.81,41.38,41.38,0,0,0,10.52,5c3.94,1.28,8,2.37,12.1,3.31a168.57,168.57,0,0,1,23.73,6.41q8.51,3.2,8.51,9.61a10.48,10.48,0,0,1-1.8,6.3,13.59,13.59,0,0,1-4.5,4,21.23,21.23,0,0,1-6,2.2,30.21,30.21,0,0,1-6.31.71,32.47,32.47,0,0,1-8.1-1,21,21,0,0,1-6.91-3.11,16.55,16.55,0,0,1-4.91-5.41,15.67,15.67,0,0,1-1.91-7.91h-27q.41,10.41,4.71,17.32a34.19,34.19,0,0,0,11,11.11,46.68,46.68,0,0,0,15.32,6,85.79,85.79,0,0,0,17.6,1.8,88.84,88.84,0,0,0,17.32-1.7,43.86,43.86,0,0,0,15.11-5.92,32.75,32.75,0,0,0,10.71-11.11q4.09-6.92,4.09-17.12A24.07,24.07,0,0,0,913.92,175Zm56.44-97.6-54,142.95H948l11.2-31.83h53.45l10.8,31.83H1056L1002.6,77.35Zm-3,87.7L986,112.59h.4l18,52.46Zm186.94-34.24a43.29,43.29,0,0,0-14.61-12.21q-8.81-4.61-21-4.6a40.45,40.45,0,0,0-17.61,3.8A31.19,31.19,0,0,0,1087.86,130h-.41V116.79h-27V256.55h28.44V207.49h.38a33.4,33.4,0,0,0,13.32,11.5,40.21,40.21,0,0,0,17.71,3.91,42.81,42.81,0,0,0,19.91-4.41,42.07,42.07,0,0,0,14.21-11.82,51.15,51.15,0,0,0,8.51-17,71.71,71.71,0,0,0,2.8-20,79.38,79.38,0,0,0-2.8-21.13A51.91,51.91,0,0,0,1154.3,130.81Zm-18.2,50.25a30.37,30.37,0,0,1-4.11,10.51,24.08,24.08,0,0,1-30.92,7.31,22.36,22.36,0,0,1-7.71-7.31,31.57,31.57,0,0,1-4.2-10.51,57.23,57.23,0,0,1-1.29-12.2,63.14,63.14,0,0,1,1.19-12.42,31.43,31.43,0,0,1,4.11-10.63,23.17,23.17,0,0,1,7.61-7.49,21.86,21.86,0,0,1,11.7-2.91,21.51,21.51,0,0,1,11.51,2.91,23.82,23.82,0,0,1,7.71,7.6,32.75,32.75,0,0,1,4.3,10.71,57.19,57.19,0,0,1,1.29,12.22A62.41,62.41,0,0,1,1136.1,181.06Zm140.1-32.54a51.62,51.62,0,0,0-8.61-17.72A43.32,43.32,0,0,0,1253,118.6q-8.81-4.61-21-4.6a40.47,40.47,0,0,0-17.61,3.8A31.29,31.29,0,0,0,1201.14,130h-.39V116.79h-27V256.55h28.42V207.49h.4a33.45,33.45,0,0,0,13.31,11.5,40.3,40.3,0,0,0,17.72,3.91,42.88,42.88,0,0,0,19.91-4.41,42.06,42.06,0,0,0,14.2-11.82,50.84,50.84,0,0,0,8.51-17,70.88,70.88,0,0,0,2.81-20A78.46,78.46,0,0,0,1276.19,148.52Zm-26.82,32.54a30,30,0,0,1-4.1,10.51,22.74,22.74,0,0,1-7.61,7.31,23.17,23.17,0,0,1-31-7.31,31.8,31.8,0,0,1-4.2-10.51,57.49,57.49,0,0,1-1.3-12.2,63.43,63.43,0,0,1,1.2-12.42,31.39,31.39,0,0,1,4.1-10.63,23.35,23.35,0,0,1,7.61-7.49,21.88,21.88,0,0,1,11.71-2.91,21.48,21.48,0,0,1,11.5,2.91,23.83,23.83,0,0,1,7.71,7.6,32.35,32.35,0,0,1,4.31,10.71,57,57,0,0,1,1.3,12.22A62.12,62.12,0,0,1,1249.37,181.06Z"/></g></g></g></svg>